<svg width="51" height="59" viewBox="0 0 51 59" fill="none" xmlns="http://www.w3.org/2000/svg">
<path d="M13.2489 25.0239L25.4339 32L37.6817 24.9294L39.9648 5.20467L25.4185 0L10.9648 5.29844L13.2489 25.0239Z" fill="#898892"/>
<path d="M25.3857 30.3333L36.3963 23.9858L38.5241 6.34473L25.3857 1.67773V30.3333Z" fill="white"/>
<path d="M25.3857 30.3339V1.67773L12.5879 6.42939L14.5451 24.0706L25.3857 30.3339Z" fill="white"/>
<path d="M29.0012 16.9329L25.3847 18.6945H21.5729L19.7811 23.363L16.4482 23.4273L25.3847 2.71875L29.0012 16.9329ZM28.6516 16.046L25.4086 9.35855L22.7486 15.931H25.3845L28.6516 16.046Z" fill="#1C1A22"/>
<path d="M28.4281 15.9361H25.3926L25.3857 18.6903L29.5831 18.6945L31.5448 23.428L34.7338 23.4895L25.3857 2.71875L25.4097 9.35855L28.4281 15.9361Z" fill="#898892"/>
<path d="M5.66203 53L8.75803 44.6H9.82603L12.91 53H11.842L11.074 50.84H7.49803L6.71803 53H5.66203ZM7.79803 50.024H10.774L9.28603 45.872L7.79803 50.024ZM13.8588 53V47.048H14.7708L14.8308 48.116C15.0228 47.74 15.2988 47.444 15.6588 47.228C16.0188 47.012 16.4268 46.904 16.8828 46.904C17.5868 46.904 18.1468 47.12 18.5628 47.552C18.9868 47.976 19.1988 48.632 19.1988 49.52V53H18.1908V49.628C18.1908 48.388 17.6788 47.768 16.6548 47.768C16.1428 47.768 15.7148 47.956 15.3708 48.332C15.0348 48.7 14.8668 49.228 14.8668 49.916V53H13.8588ZM22.838 51.128C22.502 51.128 22.194 51.084 21.914 50.996L21.314 51.56C21.402 51.624 21.51 51.68 21.638 51.728C21.774 51.768 21.966 51.808 22.214 51.848C22.462 51.88 22.81 51.916 23.258 51.956C24.058 52.012 24.63 52.196 24.974 52.508C25.318 52.82 25.49 53.228 25.49 53.732C25.49 54.076 25.394 54.404 25.202 54.716C25.018 55.028 24.73 55.284 24.338 55.484C23.954 55.684 23.458 55.784 22.85 55.784C22.314 55.784 21.838 55.712 21.422 55.568C21.006 55.432 20.682 55.22 20.45 54.932C20.218 54.652 20.102 54.296 20.102 53.864C20.102 53.64 20.162 53.396 20.282 53.132C20.402 52.876 20.626 52.632 20.954 52.4C20.778 52.328 20.626 52.252 20.498 52.172C20.378 52.084 20.266 51.988 20.162 51.884V51.608L21.182 50.6C20.71 50.2 20.474 49.672 20.474 49.016C20.474 48.624 20.566 48.268 20.75 47.948C20.934 47.628 21.202 47.376 21.554 47.192C21.906 47 22.334 46.904 22.838 46.904C23.182 46.904 23.494 46.952 23.774 47.048H25.97V47.804L24.854 47.852C25.086 48.188 25.202 48.576 25.202 49.016C25.202 49.408 25.106 49.764 24.914 50.084C24.73 50.404 24.462 50.66 24.11 50.852C23.766 51.036 23.342 51.128 22.838 51.128ZM22.838 50.3C23.262 50.3 23.598 50.192 23.846 49.976C24.102 49.752 24.23 49.432 24.23 49.016C24.23 48.608 24.102 48.296 23.846 48.08C23.598 47.856 23.262 47.744 22.838 47.744C22.406 47.744 22.062 47.856 21.806 48.08C21.558 48.296 21.434 48.608 21.434 49.016C21.434 49.432 21.558 49.752 21.806 49.976C22.062 50.192 22.406 50.3 22.838 50.3ZM21.086 53.768C21.086 54.168 21.254 54.464 21.59 54.656C21.926 54.856 22.346 54.956 22.85 54.956C23.346 54.956 23.742 54.848 24.038 54.632C24.342 54.416 24.494 54.128 24.494 53.768C24.494 53.512 24.39 53.288 24.182 53.096C23.974 52.912 23.59 52.804 23.03 52.772C22.59 52.74 22.21 52.7 21.89 52.652C21.562 52.828 21.346 53.016 21.242 53.216C21.138 53.424 21.086 53.608 21.086 53.768ZM29.0391 53.144C28.3351 53.144 27.7751 52.932 27.3591 52.508C26.9431 52.076 26.7351 51.416 26.7351 50.528V47.048H27.7431V50.42C27.7431 51.66 28.2511 52.28 29.2671 52.28C29.7871 52.28 30.2151 52.096 30.5511 51.728C30.8951 51.352 31.0671 50.82 31.0671 50.132V47.048H32.0751V53H31.1631L31.0911 51.932C30.9071 52.308 30.6311 52.604 30.2631 52.82C29.9031 53.036 29.4951 53.144 29.0391 53.144ZM33.4943 53V44.36H34.5023V53H33.4943ZM37.8944 53.144C37.3984 53.144 36.9864 53.06 36.6584 52.892C36.3304 52.724 36.0864 52.5 35.9264 52.22C35.7664 51.94 35.6864 51.636 35.6864 51.308C35.6864 50.7 35.9184 50.232 36.3824 49.904C36.8464 49.576 37.4784 49.412 38.2784 49.412H39.8864V49.34C39.8864 48.82 39.7504 48.428 39.4784 48.164C39.2064 47.892 38.8424 47.756 38.3864 47.756C37.9944 47.756 37.6544 47.856 37.3664 48.056C37.0864 48.248 36.9104 48.532 36.8384 48.908H35.8064C35.8464 48.476 35.9904 48.112 36.2384 47.816C36.4944 47.52 36.8104 47.296 37.1864 47.144C37.5624 46.984 37.9624 46.904 38.3864 46.904C39.2184 46.904 39.8424 47.128 40.2584 47.576C40.6824 48.016 40.8944 48.604 40.8944 49.34V53H39.9944L39.9344 51.932C39.7664 52.268 39.5184 52.556 39.1904 52.796C38.8704 53.028 38.4384 53.144 37.8944 53.144ZM38.0504 52.292C38.4344 52.292 38.7624 52.192 39.0344 51.992C39.3144 51.792 39.5264 51.532 39.6704 51.212C39.8144 50.892 39.8864 50.556 39.8864 50.204V50.192H38.3624C37.7704 50.192 37.3504 50.296 37.1024 50.504C36.8624 50.704 36.7424 50.956 36.7424 51.26C36.7424 51.572 36.8544 51.824 37.0784 52.016C37.3104 52.2 37.6344 52.292 38.0504 52.292ZM42.1666 53V47.048H43.0786L43.1626 48.188C43.3466 47.796 43.6266 47.484 44.0026 47.252C44.3786 47.02 44.8426 46.904 45.3946 46.904V47.96H45.1186C44.7666 47.96 44.4426 48.024 44.1466 48.152C43.8506 48.272 43.6146 48.48 43.4386 48.776C43.2626 49.072 43.1746 49.48 43.1746 50V53H42.1666Z" fill="#CDCAD5"/>
</svg>
