<svg width="36" height="62" viewBox="0 0 36 62" fill="none" xmlns="http://www.w3.org/2000/svg">
<path fill-rule="evenodd" clip-rule="evenodd" d="M16.6229 0.00343174C16.6234 0.0365632 16.61 0.604841 16.5933 1.26631C16.5577 2.67063 16.4274 3.2836 15.9607 4.2427C15.3821 5.43186 14.4077 6.2946 12.293 7.48997C10.1276 8.71405 9.37273 9.22297 8.41544 10.1039C7.53253 10.9165 6.55821 12.3388 6.05788 13.5454C5.36219 15.2232 5.07335 16.5637 5.00884 18.4139C4.87386 22.284 6.28939 25.9576 8.96807 28.6892C9.50139 29.233 10.8548 30.363 10.9728 30.363C10.9987 30.363 10.8636 30.1098 10.6727 29.8004C10.0341 28.7657 9.6468 27.7821 9.40658 26.5845C9.25903 25.8492 9.23945 23.9555 9.3723 23.2634C9.92194 20.3986 11.5951 18.0771 13.9591 16.8993C14.5075 16.626 15.7094 16.2414 16.0148 16.2414C16.1015 16.2414 16.1888 16.2236 16.2087 16.2019C16.2286 16.1801 16.0815 15.8048 15.8818 15.3678C14.6491 12.67 15.1687 9.56708 17.2014 7.48617C18.3179 6.34325 19.7037 5.75022 21.2926 5.73532L22.0953 5.7278L21.8603 5.50394C19.5668 3.31975 18.0366 1.72122 17.0403 0.468979C16.8102 0.179874 16.6225 -0.0296221 16.6229 0.00343174ZM20.5962 8.59975C19.9086 8.76867 19.3105 9.1245 18.8286 9.65142C16.8909 11.7699 17.7503 15.2802 20.4138 16.1268C20.9841 16.308 22.036 16.2547 22.5993 16.0159C23.478 15.6436 24.3075 14.7366 24.6481 13.7759C24.8665 13.16 24.9153 12.01 24.7495 11.3865C24.4082 10.103 23.5761 9.13218 22.4689 8.72561C21.8825 8.51037 21.1584 8.46164 20.5962 8.59975ZM27.3737 12.3344C27.3737 13.841 27.2799 14.2959 26.7276 15.47C26.06 16.8894 25.0957 17.8567 23.6751 18.5318C23.3826 18.6709 23.1245 18.805 23.1017 18.83C23.0789 18.855 23.1719 19.0106 23.3085 19.1758C23.9932 20.0046 24.6711 21.4187 24.9784 22.66C25.1497 23.352 25.1662 23.5445 25.1662 24.854C25.1662 26.1651 25.1497 26.3567 24.9764 27.0654C24.5893 28.6472 23.7669 30.1058 22.5787 31.3173L21.9091 32L22.4059 31.7999C23.6643 31.2931 25.181 30.3707 26.2382 29.4692C26.9537 28.859 28.18 27.484 28.7151 26.6918C29.7682 25.133 30.485 23.4045 30.861 21.5176C31.044 20.599 31.0469 18.4672 30.8663 17.638C30.5793 16.3205 30.058 14.9642 29.431 13.9037C29.0381 13.2391 28.2008 12.0394 27.7129 11.4422L27.3737 11.0267V12.3344ZM16.0929 19.9353C13.8948 20.5164 12.3192 23.0495 12.6442 25.4798C12.8112 26.7283 13.1831 27.5404 13.9954 28.4305C14.5949 29.0873 15.3633 29.5622 16.1949 29.7897C16.8777 29.9766 18.0517 29.9092 18.7394 29.6438C20.1228 29.1097 21.1745 27.9485 21.6718 26.4058C21.8102 25.9765 21.8345 25.7457 21.8353 24.854C21.8361 23.912 21.8172 23.7493 21.6471 23.2374C21.3774 22.4263 21.0593 21.8811 20.4881 21.2514C19.6097 20.2828 18.5239 19.8052 17.2267 19.817C16.8356 19.8206 16.3254 19.8738 16.0929 19.9353Z" fill="white"/>
<path d="M0.888 53V44.6H3.468C4.948 44.6 6.036 44.976 6.732 45.728C7.436 46.48 7.788 47.512 7.788 48.824C7.788 50.112 7.436 51.132 6.732 51.884C6.036 52.628 4.948 53 3.468 53H0.888ZM1.896 52.16H3.444C4.26 52.16 4.908 52.028 5.388 51.764C5.876 51.492 6.224 51.108 6.432 50.612C6.64 50.108 6.744 49.512 6.744 48.824C6.744 48.12 6.64 47.516 6.432 47.012C6.224 46.508 5.876 46.12 5.388 45.848C4.908 45.576 4.26 45.44 3.444 45.44H1.896V52.16ZM8.94347 53V47.048H9.85547L9.93947 48.188C10.1235 47.796 10.4035 47.484 10.7795 47.252C11.1555 47.02 11.6195 46.904 12.1715 46.904V47.96H11.8955C11.5435 47.96 11.2195 48.024 10.9235 48.152C10.6275 48.272 10.3915 48.48 10.2155 48.776C10.0395 49.072 9.95147 49.48 9.95147 50V53H8.94347ZM15.2348 53.144C14.5308 53.144 13.9708 52.932 13.5548 52.508C13.1388 52.076 12.9308 51.416 12.9308 50.528V47.048H13.9388V50.42C13.9388 51.66 14.4468 52.28 15.4628 52.28C15.9828 52.28 16.4108 52.096 16.7468 51.728C17.0908 51.352 17.2628 50.82 17.2628 50.132V47.048H18.2708V53H17.3588L17.2868 51.932C17.1028 52.308 16.8268 52.604 16.4588 52.82C16.0988 53.036 15.6908 53.144 15.2348 53.144ZM19.69 55.64V47.048H20.602L20.698 48.032C20.89 47.744 21.162 47.484 21.514 47.252C21.874 47.02 22.33 46.904 22.882 46.904C23.474 46.904 23.99 47.04 24.43 47.312C24.87 47.584 25.21 47.956 25.45 48.428C25.698 48.9 25.822 49.436 25.822 50.036C25.822 50.636 25.698 51.172 25.45 51.644C25.21 52.108 24.866 52.476 24.418 52.748C23.978 53.012 23.462 53.144 22.87 53.144C22.382 53.144 21.946 53.044 21.562 52.844C21.186 52.644 20.898 52.364 20.698 52.004V55.64H19.69ZM22.762 52.268C23.162 52.268 23.514 52.176 23.818 51.992C24.122 51.8 24.362 51.536 24.538 51.2C24.714 50.864 24.802 50.472 24.802 50.024C24.802 49.576 24.714 49.184 24.538 48.848C24.362 48.512 24.122 48.252 23.818 48.068C23.514 47.876 23.162 47.78 22.762 47.78C22.362 47.78 22.01 47.876 21.706 48.068C21.402 48.252 21.162 48.512 20.986 48.848C20.81 49.184 20.722 49.576 20.722 50.024C20.722 50.472 20.81 50.864 20.986 51.2C21.162 51.536 21.402 51.8 21.706 51.992C22.01 52.176 22.362 52.268 22.762 52.268ZM28.9652 53.144C28.4692 53.144 28.0572 53.06 27.7292 52.892C27.4012 52.724 27.1572 52.5 26.9972 52.22C26.8372 51.94 26.7572 51.636 26.7572 51.308C26.7572 50.7 26.9892 50.232 27.4532 49.904C27.9172 49.576 28.5492 49.412 29.3492 49.412H30.9572V49.34C30.9572 48.82 30.8212 48.428 30.5492 48.164C30.2772 47.892 29.9132 47.756 29.4572 47.756C29.0652 47.756 28.7252 47.856 28.4372 48.056C28.1572 48.248 27.9812 48.532 27.9092 48.908H26.8772C26.9172 48.476 27.0612 48.112 27.3092 47.816C27.5652 47.52 27.8812 47.296 28.2572 47.144C28.6332 46.984 29.0332 46.904 29.4572 46.904C30.2892 46.904 30.9132 47.128 31.3292 47.576C31.7532 48.016 31.9652 48.604 31.9652 49.34V53H31.0652L31.0052 51.932C30.8372 52.268 30.5892 52.556 30.2612 52.796C29.9412 53.028 29.5092 53.144 28.9652 53.144ZM29.1212 52.292C29.5052 52.292 29.8332 52.192 30.1052 51.992C30.3852 51.792 30.5972 51.532 30.7412 51.212C30.8852 50.892 30.9572 50.556 30.9572 50.204V50.192H29.4332C28.8412 50.192 28.4212 50.296 28.1732 50.504C27.9332 50.704 27.8132 50.956 27.8132 51.26C27.8132 51.572 27.9252 51.824 28.1492 52.016C28.3812 52.2 28.7052 52.292 29.1212 52.292ZM33.2374 53V44.36H34.2454V53H33.2374Z" fill="#CDCAD5"/>
</svg>
