<svg width="73" height="52" viewBox="0 0 73 52" fill="none" xmlns="http://www.w3.org/2000/svg">
<path d="M32.5 48.144C31.716 48.144 31.028 47.964 30.436 47.604C29.844 47.236 29.384 46.728 29.056 46.08C28.728 45.424 28.564 44.668 28.564 43.812C28.564 42.956 28.728 42.2 29.056 41.544C29.392 40.888 29.864 40.376 30.472 40.008C31.088 39.64 31.812 39.456 32.644 39.456C33.588 39.456 34.372 39.684 34.996 40.14C35.628 40.596 36.036 41.224 36.22 42.024H35.056C34.944 41.52 34.676 41.12 34.252 40.824C33.836 40.528 33.3 40.38 32.644 40.38C32.028 40.38 31.492 40.52 31.036 40.8C30.58 41.072 30.224 41.464 29.968 41.976C29.72 42.488 29.596 43.1 29.596 43.812C29.596 44.524 29.72 45.136 29.968 45.648C30.216 46.16 30.56 46.556 31 46.836C31.44 47.108 31.952 47.244 32.536 47.244C33.432 47.244 34.108 46.984 34.564 46.464C35.02 45.936 35.28 45.216 35.344 44.304H32.92V43.512H36.376V48H35.452L35.368 46.62C35.064 47.108 34.692 47.484 34.252 47.748C33.812 48.012 33.228 48.144 32.5 48.144ZM40.382 48.144C39.822 48.144 39.318 48.016 38.87 47.76C38.422 47.504 38.066 47.144 37.802 46.68C37.546 46.208 37.418 45.656 37.418 45.024C37.418 44.392 37.55 43.844 37.814 43.38C38.078 42.908 38.434 42.544 38.882 42.288C39.338 42.032 39.846 41.904 40.406 41.904C40.966 41.904 41.47 42.032 41.918 42.288C42.366 42.544 42.718 42.908 42.974 43.38C43.238 43.844 43.37 44.392 43.37 45.024C43.37 45.656 43.238 46.208 42.974 46.68C42.71 47.144 42.35 47.504 41.894 47.76C41.446 48.016 40.942 48.144 40.382 48.144ZM40.382 47.28C40.726 47.28 41.046 47.196 41.342 47.028C41.638 46.86 41.878 46.608 42.062 46.272C42.246 45.936 42.338 45.52 42.338 45.024C42.338 44.528 42.246 44.112 42.062 43.776C41.886 43.44 41.65 43.188 41.354 43.02C41.058 42.852 40.742 42.768 40.406 42.768C40.062 42.768 39.742 42.852 39.446 43.02C39.15 43.188 38.91 43.44 38.726 43.776C38.542 44.112 38.45 44.528 38.45 45.024C38.45 45.52 38.542 45.936 38.726 46.272C38.91 46.608 39.146 46.86 39.434 47.028C39.73 47.196 40.046 47.28 40.382 47.28Z" fill="#CDCAD5"/>
<path d="M5.45325 8.17596C5.3125 8.17596 5.27731 8.10559 5.34769 8.00002L6.08663 7.04996C6.157 6.9444 6.33294 6.87402 6.47369 6.87402H19.0356C19.1764 6.87402 19.2116 6.97959 19.1412 7.08515L18.543 8.00002C18.4726 8.10559 18.2967 8.21115 18.1911 8.21115L5.45325 8.17596Z" fill="white"/>
<path d="M0.14075 11.4142C2.93628e-07 11.4142 -0.0351877 11.3439 0.0351874 11.2383L0.774126 10.2882C0.844501 10.1827 1.02044 10.1123 1.16119 10.1123H17.2067C17.3475 10.1123 17.4178 10.2179 17.3827 10.3234L17.1012 11.1679C17.066 11.3087 16.9252 11.3791 16.7845 11.3791L0.14075 11.4142Z" fill="white"/>
<path d="M8.66028 14.6486C8.51953 14.6486 8.48434 14.5431 8.55472 14.4375L9.04735 13.5578C9.11772 13.4522 9.25847 13.3467 9.39922 13.3467H16.4367C16.5775 13.3467 16.6479 13.4522 16.6479 13.593L16.5775 14.4375C16.5775 14.5782 16.4367 14.6838 16.3312 14.6838L8.66028 14.6486Z" fill="white"/>
<path d="M45.178 7.54222C42.9612 8.10522 41.4482 8.52747 39.2665 9.09047C38.7387 9.23122 38.7035 9.2664 38.2461 8.73859C37.7183 8.1404 37.3312 7.75334 36.5923 7.40147C34.3755 6.31065 32.229 6.62734 30.2233 7.92928C27.8306 9.47753 26.599 11.7647 26.6342 14.6149C26.6694 17.4299 28.6047 19.7523 31.3845 20.1394C33.7773 20.456 35.783 19.6115 37.3664 17.817C37.6831 17.4299 37.9646 17.0077 38.3165 16.515H31.5253C30.7863 16.515 30.6104 16.0576 30.8567 15.4594C31.3141 14.3686 32.1586 12.5388 32.6513 11.624C32.7568 11.4128 33.0031 11.061 33.531 11.061H46.3392C46.2688 12.011 46.2689 12.9611 46.1281 13.9112C45.741 16.4447 44.791 18.767 43.2427 20.8079C40.7092 24.1507 37.4016 26.2268 33.2143 26.7898C29.7659 27.2472 26.5638 26.5787 23.7488 24.4674C21.1449 22.4969 19.6671 19.893 19.28 16.6558C18.8226 12.8203 19.9486 9.37197 22.2709 6.34584C24.7693 3.0734 28.0769 0.99733 32.1235 0.258391C35.4311 -0.339797 38.598 0.0472667 41.4482 1.98258C43.3131 3.21415 44.6502 4.90315 45.5299 6.94403C45.741 7.26071 45.6003 7.43665 45.178 7.54222Z" fill="white"/>
<path d="M56.8249 27.0003C53.6229 26.9299 50.7023 26.015 48.2392 23.9038C46.1631 22.1092 44.8612 19.822 44.4389 17.1126C43.8056 13.1364 44.8964 9.61765 47.2891 6.48595C49.8578 3.10795 52.9543 1.34857 57.1416 0.609632C60.7308 -0.0237443 64.1088 0.328131 67.1701 2.4042C69.9499 4.30432 71.6741 6.87302 72.1315 10.251C72.7297 15.0013 71.3574 18.872 68.085 22.1796C65.7626 24.5372 62.9124 26.015 59.6399 26.6836C58.6899 26.8595 57.7398 26.8947 56.8249 27.0003ZM65.1996 12.7845C65.1644 12.3271 65.1644 11.9752 65.094 11.6233C64.4606 8.13977 61.2586 6.16926 57.9158 6.94339C54.6433 7.68233 52.5321 9.7584 51.7579 13.066C51.1246 15.8107 52.4617 18.5905 54.9952 19.7165C56.9305 20.561 58.8658 20.4554 60.7308 19.5053C63.5106 18.0627 65.0236 15.8107 65.1996 12.7845Z" fill="white"/>
</svg>
