<svg width="36" height="58" viewBox="0 0 36 58" fill="none" xmlns="http://www.w3.org/2000/svg">
<g clip-path="url(#clip0_4096_1687)">
<path d="M34.0005 0H18.0672L2.85254 16H17.9725L18.0432 15.928L34.0005 0Z" fill="#898892"/>
<path d="M34 31.9997H2H34ZM18.0427 15.9277L17.972 15.9997H18.1147L18.0427 15.9277Z" fill="white"/>
<path d="M18.0667 0H2V16.896V16H2.852L18.0667 0Z" fill="white"/>
<path d="M17.972 16H2.852L2 16.896V32L17.972 16Z" fill="#898892"/>
<path d="M18.1147 16H17.972L2 32H34L18.1147 16Z" fill="white"/>
<path d="M2.852 16H2V16.896L2.852 16Z" fill="white"/>
</g>
<path d="M3.888 53V44.6H4.896V48.404L8.4 44.6H9.672L6.552 47.948L9.72 53H8.496L5.832 48.728L4.896 49.724V53H3.888ZM12.8859 53.144C12.3259 53.144 11.8219 53.016 11.3739 52.76C10.9259 52.504 10.5699 52.144 10.3059 51.68C10.0499 51.208 9.92194 50.656 9.92194 50.024C9.92194 49.392 10.0539 48.844 10.3179 48.38C10.5819 47.908 10.9379 47.544 11.3859 47.288C11.8419 47.032 12.3499 46.904 12.9099 46.904C13.4699 46.904 13.9739 47.032 14.4219 47.288C14.8699 47.544 15.2219 47.908 15.4779 48.38C15.7419 48.844 15.8739 49.392 15.8739 50.024C15.8739 50.656 15.7419 51.208 15.4779 51.68C15.2139 52.144 14.8539 52.504 14.3979 52.76C13.9499 53.016 13.4459 53.144 12.8859 53.144ZM12.8859 52.28C13.2299 52.28 13.5499 52.196 13.8459 52.028C14.1419 51.86 14.3819 51.608 14.5659 51.272C14.7499 50.936 14.8419 50.52 14.8419 50.024C14.8419 49.528 14.7499 49.112 14.5659 48.776C14.3899 48.44 14.1539 48.188 13.8579 48.02C13.5619 47.852 13.2459 47.768 12.9099 47.768C12.5659 47.768 12.2459 47.852 11.9499 48.02C11.6539 48.188 11.4139 48.44 11.2299 48.776C11.0459 49.112 10.9539 49.528 10.9539 50.024C10.9539 50.52 11.0459 50.936 11.2299 51.272C11.4139 51.608 11.6499 51.86 11.9379 52.028C12.2339 52.196 12.5499 52.28 12.8859 52.28ZM19.1531 53C18.6091 53 18.1811 52.868 17.8691 52.604C17.5571 52.34 17.4011 51.864 17.4011 51.176V47.9H16.3691V47.048H17.4011L17.5331 45.62H18.4091V47.048H20.1611V47.9H18.4091V51.176C18.4091 51.552 18.4851 51.808 18.6371 51.944C18.7891 52.072 19.0571 52.136 19.4411 52.136H20.0651V53H19.1531ZM21.2018 53V44.36H22.2098V53H21.2018ZM24.2339 45.728C24.0339 45.728 23.8659 45.664 23.7299 45.536C23.6019 45.4 23.5379 45.232 23.5379 45.032C23.5379 44.84 23.6019 44.68 23.7299 44.552C23.8659 44.424 24.0339 44.36 24.2339 44.36C24.4259 44.36 24.5899 44.424 24.7259 44.552C24.8619 44.68 24.9299 44.84 24.9299 45.032C24.9299 45.232 24.8619 45.4 24.7259 45.536C24.5899 45.664 24.4259 45.728 24.2339 45.728ZM23.7299 53V47.048H24.7379V53H23.7299ZM26.253 53V47.048H27.165L27.225 48.116C27.417 47.74 27.693 47.444 28.053 47.228C28.413 47.012 28.821 46.904 29.277 46.904C29.981 46.904 30.541 47.12 30.957 47.552C31.381 47.976 31.593 48.632 31.593 49.52V53H30.585V49.628C30.585 48.388 30.073 47.768 29.049 47.768C28.537 47.768 28.109 47.956 27.765 48.332C27.429 48.7 27.261 49.228 27.261 49.916V53H26.253Z" fill="#CDCAD5"/>
<defs>
<clipPath id="clip0_4096_1687">
<rect width="32" height="32" fill="white" transform="translate(2)"/>
</clipPath>
</defs>
</svg>
