<svg width="38" height="57" viewBox="0 0 38 57" fill="none" xmlns="http://www.w3.org/2000/svg">
<g clip-path="url(#clip0_4096_1713)">
<path d="M35.9204 8.21373C35.933 8.26143 35.9394 8.31062 35.9395 8.36003V16.0403C35.9395 16.1389 35.9141 16.2357 35.8659 16.321C35.8176 16.4063 35.7483 16.4771 35.6648 16.5261L29.3702 20.2374V27.5936C29.3702 27.7938 29.2663 27.9786 29.0968 28.0794L15.9575 35.8255C15.9274 35.843 15.8946 35.8542 15.8618 35.8661C15.8495 35.8703 15.8379 35.878 15.8249 35.8815C15.733 35.9063 15.6365 35.9063 15.5446 35.8815C15.5296 35.8773 15.5159 35.8689 15.5016 35.8633C15.4715 35.8521 15.4401 35.8423 15.4114 35.8255L2.27478 28.0794C2.19132 28.0303 2.12198 27.9596 2.07374 27.8743C2.0255 27.789 2.00007 27.6922 2 27.5936V4.55278C2 4.50239 2.00684 4.45339 2.01914 4.40579C2.02324 4.38969 2.03281 4.37499 2.03828 4.35889C2.04853 4.32949 2.0581 4.29939 2.07314 4.27209C2.08339 4.25389 2.09843 4.23919 2.11073 4.22239C2.12645 4.19999 2.14081 4.17689 2.15926 4.15729C2.17498 4.14119 2.19549 4.12929 2.21326 4.11529C2.23308 4.09849 2.25085 4.08029 2.27341 4.06699H2.27409L8.84273 0.193949C8.9259 0.144936 9.02018 0.119141 9.11613 0.119141C9.21209 0.119141 9.30637 0.144936 9.38954 0.193949L15.9582 4.06699H15.9595C15.9814 4.08099 15.9999 4.09849 16.0197 4.11459C16.0375 4.12859 16.0573 4.14119 16.073 4.15659C16.0921 4.17689 16.1058 4.19999 16.1222 4.22239C16.1338 4.23919 16.1496 4.25389 16.1591 4.27209C16.1749 4.30009 16.1837 4.32949 16.1947 4.35889C16.2001 4.37499 16.2097 4.38969 16.2138 4.40649C16.2264 4.45419 16.2328 4.50337 16.233 4.55278V18.9439L21.7066 15.7162V8.35933C21.7066 8.31033 21.7134 8.26063 21.7257 8.21373C21.7305 8.19693 21.7394 8.18223 21.7449 8.16613C21.7558 8.13673 21.7654 8.10663 21.7804 8.07933C21.7907 8.06113 21.8057 8.04643 21.8173 8.02963C21.8337 8.00723 21.8474 7.98413 21.8665 7.96453C21.8823 7.94843 21.9021 7.93653 21.9198 7.92253C21.9403 7.90573 21.9581 7.88754 21.98 7.87424H21.9807L28.55 4.00119C28.6331 3.95211 28.7274 3.92628 28.8234 3.92628C28.9194 3.92628 29.0137 3.95211 29.0968 4.00119L35.6654 7.87424C35.6887 7.88824 35.7065 7.90573 35.727 7.92183C35.744 7.93583 35.7639 7.94843 35.7796 7.96383C35.7987 7.98413 35.8124 8.00723 35.8288 8.02963C35.8411 8.04643 35.8562 8.06113 35.8657 8.07933C35.8814 8.10663 35.8903 8.13673 35.9013 8.16613C35.9074 8.18223 35.9163 8.19693 35.9204 8.21373ZM34.8445 15.7162V9.32951L32.5459 10.6847L29.3702 12.5572V18.9439L34.8452 15.7162H34.8445ZM28.2759 27.2695V20.8786L25.1522 22.7056L16.2323 27.9191V34.3702L28.2759 27.2695ZM3.095 5.52227V27.2695L15.1373 34.3695V27.9198L8.84614 24.2736L8.84409 24.2722L8.84136 24.2708C8.82017 24.2582 8.8024 24.24 8.78258 24.2246C8.76549 24.2106 8.74567 24.1994 8.73063 24.184L8.72926 24.1819C8.71149 24.1644 8.69919 24.1427 8.68415 24.1231C8.67048 24.1042 8.65407 24.0881 8.64314 24.0685L8.64245 24.0664C8.63015 24.0454 8.62263 24.0202 8.61375 23.9964C8.60486 23.9754 8.59324 23.9558 8.58777 23.9334V23.9327C8.58094 23.9061 8.57957 23.8781 8.57684 23.8508C8.5741 23.8298 8.56863 23.8088 8.56863 23.7878V8.74992L5.39368 6.87675L3.095 5.52297V5.52227ZM9.11682 1.32653L3.64387 4.55278L9.11545 7.77904L14.5877 4.55208L9.11545 1.32653H9.11682ZM11.963 21.461L15.138 19.5893V5.52227L12.8393 6.87745L9.66363 8.74992V22.8169L11.963 21.461ZM28.8234 5.13378L23.3511 8.36003L28.8234 11.5863L34.295 8.35933L28.8234 5.13378ZM28.2759 12.5572L25.1003 10.6847L22.8016 9.32951V15.7162L25.9765 17.588L28.2759 18.9439V12.5572ZM15.6841 26.9497L23.7107 22.2569L27.7229 19.912L22.2548 16.6878L15.9589 20.3998L10.2207 23.7829L15.6841 26.9497Z" fill="white"/>
</g>
<path d="M0.888 53V44.6H1.896V52.196H5.808V53H0.888ZM8.87269 53.144C8.37669 53.144 7.96469 53.06 7.63669 52.892C7.30869 52.724 7.06469 52.5 6.90469 52.22C6.74469 51.94 6.66469 51.636 6.66469 51.308C6.66469 50.7 6.89669 50.232 7.36069 49.904C7.82469 49.576 8.45669 49.412 9.25669 49.412H10.8647V49.34C10.8647 48.82 10.7287 48.428 10.4567 48.164C10.1847 47.892 9.82069 47.756 9.36469 47.756C8.97269 47.756 8.63269 47.856 8.34469 48.056C8.06469 48.248 7.88869 48.532 7.81669 48.908H6.78469C6.82469 48.476 6.96869 48.112 7.21669 47.816C7.47269 47.52 7.78869 47.296 8.16469 47.144C8.54069 46.984 8.94069 46.904 9.36469 46.904C10.1967 46.904 10.8207 47.128 11.2367 47.576C11.6607 48.016 11.8727 48.604 11.8727 49.34V53H10.9727L10.9127 51.932C10.7447 52.268 10.4967 52.556 10.1687 52.796C9.84869 53.028 9.41669 53.144 8.87269 53.144ZM9.02869 52.292C9.41269 52.292 9.74069 52.192 10.0127 51.992C10.2927 51.792 10.5047 51.532 10.6487 51.212C10.7927 50.892 10.8647 50.556 10.8647 50.204V50.192H9.34069C8.74869 50.192 8.32869 50.296 8.08069 50.504C7.84069 50.704 7.72069 50.956 7.72069 51.26C7.72069 51.572 7.83269 51.824 8.05669 52.016C8.28869 52.2 8.61269 52.292 9.02869 52.292ZM13.1449 53V47.048H14.0569L14.1409 48.188C14.3249 47.796 14.6049 47.484 14.9809 47.252C15.3569 47.02 15.8209 46.904 16.3729 46.904V47.96H16.0969C15.7449 47.96 15.4209 48.024 15.1249 48.152C14.8289 48.272 14.5929 48.48 14.4169 48.776C14.2409 49.072 14.1529 49.48 14.1529 50V53H13.1449ZM19.2443 53.144C18.7483 53.144 18.3363 53.06 18.0083 52.892C17.6803 52.724 17.4363 52.5 17.2763 52.22C17.1163 51.94 17.0363 51.636 17.0363 51.308C17.0363 50.7 17.2683 50.232 17.7323 49.904C18.1963 49.576 18.8283 49.412 19.6283 49.412H21.2363V49.34C21.2363 48.82 21.1003 48.428 20.8283 48.164C20.5563 47.892 20.1923 47.756 19.7363 47.756C19.3443 47.756 19.0043 47.856 18.7163 48.056C18.4363 48.248 18.2603 48.532 18.1883 48.908H17.1563C17.1963 48.476 17.3403 48.112 17.5883 47.816C17.8443 47.52 18.1603 47.296 18.5363 47.144C18.9123 46.984 19.3123 46.904 19.7363 46.904C20.5683 46.904 21.1923 47.128 21.6083 47.576C22.0323 48.016 22.2443 48.604 22.2443 49.34V53H21.3443L21.2843 51.932C21.1163 52.268 20.8683 52.556 20.5403 52.796C20.2203 53.028 19.7883 53.144 19.2443 53.144ZM19.4003 52.292C19.7843 52.292 20.1123 52.192 20.3843 51.992C20.6643 51.792 20.8763 51.532 21.0203 51.212C21.1643 50.892 21.2363 50.556 21.2363 50.204V50.192H19.7123C19.1203 50.192 18.7003 50.296 18.4523 50.504C18.2123 50.704 18.0923 50.956 18.0923 51.26C18.0923 51.572 18.2043 51.824 18.4283 52.016C18.6603 52.2 18.9843 52.292 19.4003 52.292ZM25.0098 53L22.7538 47.048H23.8098L25.5978 52.028L27.3978 47.048H28.4298L26.1738 53H25.0098ZM31.6829 53.144C31.1149 53.144 30.6109 53.016 30.1709 52.76C29.7309 52.496 29.3829 52.132 29.1269 51.668C28.8789 51.204 28.7549 50.656 28.7549 50.024C28.7549 49.4 28.8789 48.856 29.1269 48.392C29.3749 47.92 29.7189 47.556 30.1589 47.3C30.6069 47.036 31.1229 46.904 31.7069 46.904C32.2829 46.904 32.7789 47.036 33.1949 47.3C33.6189 47.556 33.9429 47.896 34.1669 48.32C34.3909 48.744 34.5029 49.2 34.5029 49.688C34.5029 49.776 34.4989 49.864 34.4909 49.952C34.4909 50.04 34.4909 50.14 34.4909 50.252H29.7509C29.7749 50.708 29.8789 51.088 30.0629 51.392C30.2549 51.688 30.4909 51.912 30.7709 52.064C31.0589 52.216 31.3629 52.292 31.6829 52.292C32.0989 52.292 32.4469 52.196 32.7269 52.004C33.0069 51.812 33.2109 51.552 33.3389 51.224H34.3349C34.1749 51.776 33.8669 52.236 33.4109 52.604C32.9629 52.964 32.3869 53.144 31.6829 53.144ZM31.6829 47.756C31.2029 47.756 30.7749 47.904 30.3989 48.2C30.0309 48.488 29.8189 48.912 29.7629 49.472H33.5069C33.4829 48.936 33.2989 48.516 32.9549 48.212C32.6109 47.908 32.1869 47.756 31.6829 47.756ZM35.5989 53V44.36H36.6069V53H35.5989Z" fill="#CDCAD5"/>
<defs>
<clipPath id="clip0_4096_1713">
<rect width="34" height="36" fill="white" transform="translate(2)"/>
</clipPath>
</defs>
</svg>
