<svg width="118" height="49" viewBox="0 0 118 49" fill="none" xmlns="http://www.w3.org/2000/svg">
<path d="M40.888 45V36.6H43.648C44.304 36.6 44.844 36.708 45.268 36.924C45.692 37.14 46.004 37.432 46.204 37.8C46.412 38.168 46.516 38.584 46.516 39.048C46.516 39.504 46.416 39.916 46.216 40.284C46.016 40.652 45.704 40.948 45.28 41.172C44.856 41.388 44.312 41.496 43.648 41.496H41.896V45H40.888ZM41.896 40.644H43.624C44.296 40.644 44.772 40.504 45.052 40.224C45.34 39.936 45.484 39.544 45.484 39.048C45.484 38.544 45.34 38.152 45.052 37.872C44.772 37.584 44.296 37.44 43.624 37.44H41.896V40.644ZM48.1852 47.64L49.6612 44.424H49.3132L46.9492 39.048H48.0412L50.0092 43.68L52.0972 39.048H53.1412L49.2412 47.64H48.1852ZM56.3172 45C55.7732 45 55.3452 44.868 55.0332 44.604C54.7212 44.34 54.5652 43.864 54.5652 43.176V39.9H53.5332V39.048H54.5652L54.6972 37.62H55.5732V39.048H57.3252V39.9H55.5732V43.176C55.5732 43.552 55.6492 43.808 55.8012 43.944C55.9532 44.072 56.2212 44.136 56.6052 44.136H57.2292V45H56.3172ZM58.3658 45V36.36H59.3738V40.068C59.5738 39.7 59.8578 39.416 60.2258 39.216C60.5938 39.008 60.9938 38.904 61.4258 38.904C62.1138 38.904 62.6658 39.12 63.0818 39.552C63.4978 39.976 63.7058 40.632 63.7058 41.52V45H62.7098V41.628C62.7098 40.388 62.2098 39.768 61.2098 39.768C60.6898 39.768 60.2538 39.956 59.9018 40.332C59.5498 40.7 59.3738 41.228 59.3738 41.916V45H58.3658ZM67.705 45.144C67.145 45.144 66.641 45.016 66.193 44.76C65.745 44.504 65.389 44.144 65.125 43.68C64.869 43.208 64.741 42.656 64.741 42.024C64.741 41.392 64.873 40.844 65.137 40.38C65.401 39.908 65.757 39.544 66.205 39.288C66.661 39.032 67.169 38.904 67.729 38.904C68.289 38.904 68.793 39.032 69.241 39.288C69.689 39.544 70.041 39.908 70.297 40.38C70.561 40.844 70.693 41.392 70.693 42.024C70.693 42.656 70.561 43.208 70.297 43.68C70.033 44.144 69.673 44.504 69.217 44.76C68.769 45.016 68.265 45.144 67.705 45.144ZM67.705 44.28C68.049 44.28 68.369 44.196 68.665 44.028C68.961 43.86 69.201 43.608 69.385 43.272C69.569 42.936 69.661 42.52 69.661 42.024C69.661 41.528 69.569 41.112 69.385 40.776C69.209 40.44 68.973 40.188 68.677 40.02C68.381 39.852 68.065 39.768 67.729 39.768C67.385 39.768 67.065 39.852 66.769 40.02C66.473 40.188 66.233 40.44 66.049 40.776C65.865 41.112 65.773 41.528 65.773 42.024C65.773 42.52 65.865 42.936 66.049 43.272C66.233 43.608 66.469 43.86 66.757 44.028C67.053 44.196 67.369 44.28 67.705 44.28ZM71.8546 45V39.048H72.7666L72.8266 40.116C73.0186 39.74 73.2946 39.444 73.6546 39.228C74.0146 39.012 74.4226 38.904 74.8786 38.904C75.5826 38.904 76.1426 39.12 76.5586 39.552C76.9826 39.976 77.1946 40.632 77.1946 41.52V45H76.1866V41.628C76.1866 40.388 75.6746 39.768 74.6506 39.768C74.1386 39.768 73.7106 39.956 73.3666 40.332C73.0306 40.7 72.8626 41.228 72.8626 41.916V45H71.8546Z" fill="#CDCAD5"/>
<path d="M44.1679 14.4755C44.1679 10.8826 43.1434 9.03809 41.0945 8.93708C40.2792 8.89861 39.4832 9.02847 38.7088 9.32908C38.0908 9.55033 37.6747 9.76918 37.4559 9.99043V18.5663C38.7665 19.3887 39.9305 19.7711 40.9454 19.711C43.0929 19.5691 44.1679 17.8255 44.1679 14.4755ZM46.6955 14.6246C46.6955 16.45 46.2674 17.965 45.4064 19.1699C44.4469 20.5334 43.117 21.2357 41.4167 21.2742C40.1349 21.315 38.8146 20.9134 37.4559 20.0717V27.8659L35.2578 27.082V9.7812C35.6185 9.3387 36.0827 8.95873 36.6454 8.63648C37.9537 7.87413 39.5433 7.48213 41.4143 7.46289L41.4456 7.49415C43.1555 7.47251 44.4733 8.17474 45.3992 9.59843C46.2626 10.9043 46.6955 12.5781 46.6955 14.6246Z" fill="white"/>
<path d="M60.1301 19.7398C60.1301 22.188 59.8848 23.8835 59.3942 24.8262C58.9012 25.7689 57.9633 26.5216 56.5781 27.082C55.455 27.5245 54.2405 27.7649 52.9371 27.8058L52.5739 26.4206C53.899 26.2402 54.8321 26.0599 55.3732 25.8795C56.4386 25.5188 57.1697 24.9657 57.5713 24.2249C57.8935 23.6213 58.0523 22.4694 58.0523 20.7643V20.192C56.5492 20.8749 54.974 21.214 53.3267 21.214C52.2445 21.214 51.2897 20.8749 50.4672 20.192C49.5438 19.4488 49.082 18.5061 49.082 17.3638V8.21562L51.2801 7.46289V16.6712C51.2801 17.6548 51.5975 18.4123 52.2324 18.9438C52.8673 19.4753 53.6898 19.7302 54.6974 19.711C55.7051 19.6893 56.7849 19.2997 57.932 18.5374V7.79477H60.1301V19.7398Z" fill="white"/>
<path d="M68.71 21.1528C68.4479 21.1745 68.2074 21.1841 67.9861 21.1841C66.7428 21.1841 65.7736 20.8883 65.081 20.2943C64.3908 19.7003 64.0445 18.8802 64.0445 17.8341V9.1765H62.5391V7.7937H64.0445V4.12143L66.2402 3.33984V7.7937H68.71V9.1765H66.2402V17.774C66.2402 18.5989 66.4614 19.1832 66.9039 19.5247C67.2839 19.8061 67.8875 19.9672 68.71 20.0081V21.1528Z" fill="white"/>
<path d="M82.0209 20.973H79.8228V12.4886C79.8228 11.6252 79.6208 10.8821 79.2192 10.2617C78.755 9.55942 78.1105 9.20831 77.2832 9.20831C76.2756 9.20831 75.0154 9.73979 73.5028 10.8028V20.973H71.3047V0.692607L73.5028 0V9.23717C74.9072 8.21509 76.4415 7.70285 78.1081 7.70285C79.2721 7.70285 80.2148 8.09485 80.9363 8.87644C81.6601 9.65802 82.0209 10.632 82.0209 11.796V20.973Z" fill="white"/>
<path d="M93.7019 14.1292C93.7019 12.7488 93.4398 11.6089 92.9179 10.7071C92.2974 9.60805 91.3331 9.02847 90.0296 8.96835C87.6199 9.10783 86.4175 10.8345 86.4175 14.1437C86.4175 15.6611 86.6676 16.9285 87.1726 17.9458C87.8171 19.242 88.7839 19.8817 90.0729 19.8601C92.4922 19.8408 93.7019 17.9314 93.7019 14.1292ZM96.1092 14.1437C96.1092 16.1085 95.6066 17.7438 94.6037 19.0496C93.4999 20.5118 91.9752 21.2453 90.0296 21.2453C88.1009 21.2453 86.5979 20.5118 85.5133 19.0496C84.5297 17.7438 84.0391 16.1085 84.0391 14.1437C84.0391 12.2967 84.5705 10.7432 85.6335 9.47819C86.7566 8.13626 88.2332 7.46289 90.0585 7.46289C91.8838 7.46289 93.37 8.13626 94.5147 9.47819C95.5777 10.7432 96.1092 12.2967 96.1092 14.1437Z" fill="white"/>
<path d="M108.713 20.9735H106.515V12.0081C106.515 11.0245 106.219 10.2574 105.628 9.70424C105.036 9.15353 104.247 8.88658 103.264 8.90823C102.22 8.92747 101.227 9.26896 100.284 9.9303V20.9735H98.0859V9.65855C99.3509 8.73748 100.515 8.13626 101.578 7.85489C102.581 7.59275 103.466 7.46289 104.228 7.46289C104.75 7.46289 105.24 7.51339 105.702 7.6144C106.566 7.814 107.268 8.18436 107.809 8.72786C108.413 9.32908 108.713 10.0505 108.713 10.8947V20.9735Z" fill="white"/>
<path d="M13.55 0.773664C12.4191 0.778919 11.3391 0.87537 10.3888 1.04352C7.58939 1.53809 7.08112 2.57327 7.08112 4.4823V7.00356H13.6965V7.84398H7.08112H4.59841C2.67579 7.84398 0.992288 8.99959 0.465709 11.198C-0.141693 13.7178 -0.168634 15.2902 0.465709 17.9213C0.935956 19.8798 2.05897 21.2753 3.98159 21.2753H6.25612V18.2528C6.25612 16.0693 8.14536 14.1433 10.3888 14.1433H16.9965C18.8359 14.1433 20.3042 12.6288 20.3042 10.7816V4.4823C20.3042 2.68949 18.7918 1.34274 16.9965 1.04352C15.8601 0.854351 14.681 0.768409 13.55 0.773664ZM9.97247 2.80147C10.6558 2.80147 11.2138 3.36861 11.2138 4.06595C11.2138 4.76082 10.6558 5.32272 9.97247 5.32272C9.2867 5.32272 8.73112 4.76082 8.73112 4.06595C8.73112 3.36861 9.2867 2.80147 9.97247 2.80147Z" fill="#898892"/>
<path d="M21.1301 7.84375V10.7814C21.1301 13.0589 19.1993 14.9758 16.9974 14.9758H10.3897C8.57978 14.9758 7.08203 16.5248 7.08203 18.3374V24.6367C7.08203 26.4295 8.64101 27.484 10.3897 27.9984C12.4838 28.6141 14.4919 28.7254 16.9974 27.9984C18.6629 27.5162 20.3051 26.5458 20.3051 24.6367V22.1155H13.6974V21.275H20.3051H23.6129C25.5355 21.275 26.2519 19.934 26.9206 17.9211C27.6112 15.8488 27.5818 13.856 26.9206 11.1977C26.4454 9.28373 25.5379 7.84375 23.6129 7.84375H21.1301ZM17.4138 23.7963C18.0996 23.7963 18.6551 24.3582 18.6551 25.0531C18.6551 25.7504 18.0996 26.3176 17.4138 26.3176C16.7305 26.3176 16.1724 25.7504 16.1724 25.0531C16.1724 24.3582 16.7305 23.7963 17.4138 23.7963Z" fill="white"/>
<path d="M112.991 5.83402H113.376V3.417H114.289V3.12891H112.078V3.417H112.991V5.83402ZM114.631 5.83402H114.96V3.62653L115.675 5.83374H116.042L116.786 3.63401V5.83402H117.145V3.12891H116.67L115.856 5.44639L115.162 3.12891H114.631V5.83402Z" fill="white"/>
</svg>
