<svg width="41" height="57" viewBox="0 0 41 57" fill="none" xmlns="http://www.w3.org/2000/svg">
<path fill-rule="evenodd" clip-rule="evenodd" d="M12.6587 0.0914619C11.7073 0.288821 10.7389 1.13525 10.3237 2.13252C9.74088 3.53264 9.64242 6.13243 10.0778 8.62998C10.183 9.23421 10.2693 9.78932 10.2694 9.8635C10.2694 9.93769 9.77446 10.1641 9.16935 10.3667C7.00648 11.0907 4.72943 12.5317 3.84428 13.7365C2.9189 14.9964 2.76197 16.1131 3.33538 17.3587C4.14746 19.123 6.43533 20.7926 9.43481 21.8096L10.2976 22.1022L10.2181 22.5716C9.81947 24.9243 9.74641 25.7272 9.81092 27.0476C9.91253 29.1275 10.2245 30.0592 11.1318 30.9918C11.7117 31.5878 11.9702 31.7555 12.5172 31.8904C14.303 32.3308 16.9431 31.2424 19.5867 28.9762L20.5818 28.123L21.2416 28.7342C23.4432 30.774 26.2352 32.1419 27.8832 31.9882C29.6628 31.8224 30.7374 30.5347 31.1555 28.0667C31.3406 26.9744 31.2395 24.3 30.9635 22.9894C30.8527 22.4633 30.7772 22.0205 30.7957 22.0053C30.8143 21.9899 31.225 21.8437 31.7086 21.6805C33.6932 21.0101 35.3009 20.0919 36.4876 18.9509C39.2581 16.2872 38.1766 13.3475 33.6183 11.1504C32.9835 10.8445 32.0645 10.4641 31.576 10.3053L30.6877 10.0164L30.9295 8.77383C31.2249 7.25519 31.2767 4.52357 31.0315 3.39551C30.4528 0.733815 28.8169 -0.441032 26.5317 0.16371C24.8034 0.621112 23.02 1.67615 21.2063 3.31396L20.5112 3.94158L20.0116 3.4896C18.1389 1.79557 16.194 0.64205 14.5117 0.227429C13.408 -0.0445053 13.3389 -0.0495457 12.6587 0.0914619ZM15.1108 2.03119C16.1588 2.44555 17.4353 3.27079 18.6001 4.28679L19.4488 5.02698L18.5844 6.08525C18.1091 6.66738 17.4442 7.5195 17.1071 7.97897L16.4941 8.81428L14.6079 9.11233C13.5704 9.27621 12.5179 9.44475 12.2689 9.48688C11.7252 9.5789 11.7451 9.61884 11.4594 7.8629C11.1656 6.05695 11.2455 3.92141 11.6418 2.98813C12.2785 1.489 13.1392 1.25158 15.1108 2.03119ZM28.576 1.83939C29.3244 2.34358 29.8576 4.47239 29.7101 6.36817C29.6659 6.93685 29.5419 7.9009 29.4346 8.51043L29.2396 9.61871L28.0853 9.38853C27.4505 9.26186 26.3936 9.09035 25.7366 9.00725L24.542 8.85616L23.7875 7.80746C23.3725 7.2305 22.7067 6.3674 22.3079 5.88944L21.5827 5.02026L22.4337 4.29287C25.1664 1.95674 27.416 1.05822 28.576 1.83939ZM21.5743 7.43122C22.0654 8.05147 22.4671 8.5894 22.4671 8.62675C22.4671 8.6641 21.59 8.6946 20.518 8.6946C19.446 8.6946 18.5831 8.65298 18.6004 8.60206C18.6855 8.35119 20.4101 6.30355 20.5361 6.30355C20.6161 6.30355 21.0831 6.81097 21.5743 7.43122ZM22.312 10.266L23.7286 10.3499L24.5655 11.7195C25.0259 12.4727 25.7365 13.7422 26.1446 14.5404L26.8867 15.9918L26.1767 17.3966C25.7861 18.1691 25.0808 19.4353 24.6093 20.2103L23.7519 21.6192L22.9524 21.701C21.8556 21.8132 19.19 21.8289 18.1615 21.7289L17.3138 21.6467L16.5642 20.4572C15.6584 19.0201 14.1682 16.2585 14.168 16.0164C14.1676 15.7675 15.6913 12.9217 16.579 11.5133L17.3304 10.3212L18.2326 10.2767C20.068 10.1864 20.929 10.1842 22.312 10.266ZM15.2995 10.6231C15.2995 10.6529 15.0245 11.1331 14.6885 11.69C14.3523 12.2471 13.9259 13.0099 13.7408 13.3853C13.5557 13.7607 13.356 14.0373 13.2972 13.9999C13.1539 13.9089 12.2282 11.2267 12.3107 11.1419C12.4726 10.9754 15.2995 10.4847 15.2995 10.6231ZM27.301 10.8199C28.0466 10.9581 28.6875 11.1028 28.7253 11.1416C28.763 11.1804 28.5518 11.8832 28.2561 12.7034L27.7185 14.1948L26.7275 12.4239C26.1825 11.4499 25.7366 10.6341 25.7366 10.6108C25.7366 10.5387 25.9053 10.5612 27.301 10.8199ZM11.1503 12.6815C11.3526 13.2929 11.7246 14.2818 11.9769 14.8789L12.4357 15.9646L11.8081 17.5641C11.4629 18.4438 11.0822 19.4748 10.9622 19.8553C10.7557 20.5094 10.7245 20.5431 10.3894 20.4742C9.76201 20.3452 8.07534 19.6291 7.37052 19.1924C5.4765 18.0189 4.4851 16.9298 4.4851 16.0225C4.4851 14.6914 6.7409 12.8554 9.58206 11.8741C10.1981 11.6613 10.7202 11.5057 10.7422 11.5285C10.7642 11.5511 10.9479 12.07 11.1503 12.6815ZM31.3069 11.8521C34.7114 13.056 36.8887 15.0057 36.4287 16.4385C36.1393 17.3399 34.8059 18.5655 33.2186 19.3895C32.6059 19.7075 30.3709 20.5616 30.3352 20.4913C30.3254 20.4719 30.2129 20.1361 30.0854 19.7451C29.9577 19.3542 29.57 18.343 29.2238 17.4979L28.5945 15.9615L29.0016 14.9776C29.332 14.1796 29.8957 12.6693 30.2012 11.7642C30.2755 11.544 30.4818 11.5604 31.3069 11.8521ZM19.4175 12.9503C18.1654 13.4095 17.3932 14.5705 17.3912 15.997C17.3898 16.9543 17.6159 17.5474 18.2289 18.1954C19.1465 19.1651 20.5893 19.4816 21.7126 18.9595C23.2338 18.2526 23.9754 16.6918 23.5332 15.1277C23.2702 14.1967 22.305 13.1316 21.524 12.91C20.8569 12.7207 19.9984 12.7372 19.4175 12.9503ZM28.3813 19.5302C28.728 20.4745 28.8215 20.8674 28.7139 20.9292C28.4941 21.0556 25.8729 21.4792 25.7964 21.4007C25.7606 21.3638 26.0295 20.8144 26.3941 20.1798C26.7587 19.5451 27.1973 18.7536 27.3688 18.4206C27.735 17.7099 27.6983 17.6697 28.3813 19.5302ZM13.9233 18.9374C14.2164 19.4882 14.6487 20.2501 14.8841 20.6302C15.1195 21.0105 15.2952 21.3641 15.2744 21.416C15.2348 21.5149 12.4123 21.0858 12.2926 20.9628C12.1891 20.8564 13.2005 17.9357 13.3407 17.9357C13.3681 17.9357 13.6303 18.3865 13.9233 18.9374ZM13.3182 22.7753C13.9229 22.8825 14.8739 23.0093 15.4315 23.0571L16.4453 23.1439L17.0349 23.9325C17.3592 24.3662 18.04 25.2345 18.5477 25.8619C19.6263 27.1949 19.6656 27.0186 18.0031 28.3095C16.8267 29.223 15.0311 30.1522 14.0255 30.3678C13.4115 30.4993 13.2386 30.4885 12.7226 30.2859C12.1807 30.0732 12.0934 29.9768 11.7402 29.2011C11.3969 28.447 11.3463 28.184 11.2985 26.9006C11.2613 25.9004 11.3111 25.0423 11.4594 24.1311C11.7195 22.5321 11.7531 22.4342 12.0134 22.5161C12.1263 22.5516 12.7135 22.6682 13.3182 22.7753ZM29.481 23.2994C29.7693 24.6923 29.8217 27.0759 29.5874 28.1578C29.0522 30.6306 27.8918 31.0506 25.3016 29.7089C24.0961 29.0845 21.9031 27.4359 21.7569 27.0443C21.7165 26.936 21.9449 26.5628 22.3071 26.145C22.6476 25.7524 23.2898 24.9181 23.7342 24.2913L24.542 23.1514L25.9252 22.991C26.686 22.9028 27.648 22.7519 28.0629 22.6559C29.2447 22.3823 29.2959 22.4056 29.481 23.2994ZM22.4818 23.461C22.3209 23.7647 20.7127 25.7454 20.5893 25.7919C20.5356 25.8122 20.0558 25.2888 19.5231 24.6287L18.5546 23.4287L20.5423 23.359C21.6356 23.3207 22.5461 23.2772 22.5658 23.2621C22.5856 23.2471 22.5477 23.3365 22.4818 23.461Z" fill="white"/>
<path d="M6.17073 53V44.6H8.88273C9.53873 44.6 10.0747 44.708 10.4907 44.924C10.9067 45.14 11.2147 45.436 11.4147 45.812C11.6147 46.188 11.7147 46.604 11.7147 47.06C11.7147 47.588 11.5707 48.064 11.2827 48.488C11.0027 48.912 10.5627 49.212 9.96273 49.388L11.7987 53H10.6107L8.90673 49.532H8.83473H7.17873V53H6.17073ZM7.17873 48.74H8.81073C9.45873 48.74 9.93073 48.584 10.2267 48.272C10.5227 47.96 10.6707 47.56 10.6707 47.072C10.6707 46.576 10.5227 46.184 10.2267 45.896C9.93873 45.6 9.46273 45.452 8.79873 45.452H7.17873V48.74ZM15.2967 53.144C14.7287 53.144 14.2247 53.016 13.7847 52.76C13.3447 52.496 12.9967 52.132 12.7407 51.668C12.4927 51.204 12.3687 50.656 12.3687 50.024C12.3687 49.4 12.4927 48.856 12.7407 48.392C12.9887 47.92 13.3327 47.556 13.7727 47.3C14.2207 47.036 14.7367 46.904 15.3207 46.904C15.8967 46.904 16.3927 47.036 16.8087 47.3C17.2327 47.556 17.5567 47.896 17.7807 48.32C18.0047 48.744 18.1167 49.2 18.1167 49.688C18.1167 49.776 18.1127 49.864 18.1047 49.952C18.1047 50.04 18.1047 50.14 18.1047 50.252H13.3647C13.3887 50.708 13.4927 51.088 13.6767 51.392C13.8687 51.688 14.1047 51.912 14.3847 52.064C14.6727 52.216 14.9767 52.292 15.2967 52.292C15.7127 52.292 16.0607 52.196 16.3407 52.004C16.6207 51.812 16.8247 51.552 16.9527 51.224H17.9487C17.7887 51.776 17.4807 52.236 17.0247 52.604C16.5767 52.964 16.0007 53.144 15.2967 53.144ZM15.2967 47.756C14.8167 47.756 14.3887 47.904 14.0127 48.2C13.6447 48.488 13.4327 48.912 13.3767 49.472H17.1207C17.0967 48.936 16.9127 48.516 16.5687 48.212C16.2247 47.908 15.8007 47.756 15.2967 47.756ZM21.1928 53.144C20.6968 53.144 20.2848 53.06 19.9568 52.892C19.6288 52.724 19.3848 52.5 19.2248 52.22C19.0648 51.94 18.9848 51.636 18.9848 51.308C18.9848 50.7 19.2168 50.232 19.6808 49.904C20.1448 49.576 20.7768 49.412 21.5768 49.412H23.1848V49.34C23.1848 48.82 23.0488 48.428 22.7768 48.164C22.5048 47.892 22.1408 47.756 21.6848 47.756C21.2928 47.756 20.9528 47.856 20.6648 48.056C20.3848 48.248 20.2088 48.532 20.1368 48.908H19.1048C19.1448 48.476 19.2888 48.112 19.5368 47.816C19.7928 47.52 20.1088 47.296 20.4848 47.144C20.8608 46.984 21.2608 46.904 21.6848 46.904C22.5168 46.904 23.1408 47.128 23.5568 47.576C23.9808 48.016 24.1928 48.604 24.1928 49.34V53H23.2928L23.2328 51.932C23.0648 52.268 22.8168 52.556 22.4888 52.796C22.1688 53.028 21.7368 53.144 21.1928 53.144ZM21.3488 52.292C21.7328 52.292 22.0608 52.192 22.3328 51.992C22.6128 51.792 22.8248 51.532 22.9688 51.212C23.1128 50.892 23.1848 50.556 23.1848 50.204V50.192H21.6608C21.0688 50.192 20.6488 50.296 20.4008 50.504C20.1608 50.704 20.0408 50.956 20.0408 51.26C20.0408 51.572 20.1528 51.824 20.3768 52.016C20.6088 52.2 20.9328 52.292 21.3488 52.292ZM28.201 53.144C27.633 53.144 27.121 53.016 26.665 52.76C26.217 52.496 25.861 52.132 25.597 51.668C25.341 51.196 25.213 50.648 25.213 50.024C25.213 49.4 25.341 48.856 25.597 48.392C25.861 47.92 26.217 47.556 26.665 47.3C27.121 47.036 27.633 46.904 28.201 46.904C28.905 46.904 29.497 47.088 29.977 47.456C30.465 47.824 30.773 48.316 30.901 48.932H29.869C29.789 48.564 29.593 48.28 29.281 48.08C28.969 47.872 28.605 47.768 28.189 47.768C27.853 47.768 27.537 47.852 27.241 48.02C26.945 48.188 26.705 48.44 26.521 48.776C26.337 49.112 26.245 49.528 26.245 50.024C26.245 50.52 26.337 50.936 26.521 51.272C26.705 51.608 26.945 51.864 27.241 52.04C27.537 52.208 27.853 52.292 28.189 52.292C28.605 52.292 28.969 52.192 29.281 51.992C29.593 51.784 29.789 51.492 29.869 51.116H30.901C30.781 51.716 30.477 52.204 29.989 52.58C29.501 52.956 28.905 53.144 28.201 53.144ZM34.2566 53C33.7126 53 33.2846 52.868 32.9726 52.604C32.6606 52.34 32.5046 51.864 32.5046 51.176V47.9H31.4726V47.048H32.5046L32.6366 45.62H33.5126V47.048H35.2646V47.9H33.5126V51.176C33.5126 51.552 33.5886 51.808 33.7406 51.944C33.8926 52.072 34.1606 52.136 34.5446 52.136H35.1686V53H34.2566Z" fill="#CDCAD5"/>
</svg>
