<svg width="36" height="58" viewBox="0 0 36 58" fill="none" xmlns="http://www.w3.org/2000/svg">
<g clip-path="url(#clip0_4096_1668)">
<path d="M9.11223 0H26.8372C27.6997 0 28.5372 0.1375 29.3497 0.425C30.5247 0.85 31.5872 1.6 32.3872 2.575C33.1997 3.55 33.7372 4.75 33.9247 6C33.9997 6.4625 34.0122 6.925 34.0122 7.3875V24.675C34.0122 25.225 33.9872 25.7875 33.8747 26.325C33.6247 27.5625 33.0372 28.725 32.1872 29.6625C31.3497 30.6 30.2497 31.3 29.0622 31.675C28.3372 31.9 27.5872 32 26.8247 32C26.4872 32 9.06223 32 8.79973 31.9875C7.52473 31.925 6.26223 31.5125 5.19973 30.8C4.16223 30.1 3.31223 29.125 2.76223 28C2.28723 27.0375 2.04973 25.9625 2.04973 24.8875V7.1125C2.02473 6.05 2.24973 5 2.71223 4.05C3.24973 2.925 4.08723 1.9375 5.12473 1.2375C6.18723 0.5125 7.43723 0.0875 8.71223 0.025C8.83723 0 8.97473 0 9.11223 0V0Z" fill="white"/>
<path d="M29 26.175C28.8875 26 28.7625 25.825 28.625 25.6625C28.3125 25.2875 27.95 24.9625 27.55 24.6875C27.05 24.35 26.4625 24.1375 25.8625 24.1125C25.4375 24.0875 25.0125 24.1625 24.6125 24.3125C24.2125 24.45 23.825 24.65 23.45 24.85C23.0125 25.075 22.575 25.3 22.1125 25.4875C21.5625 25.7125 20.9875 25.8875 20.4 26.0125C19.6625 26.15 18.9125 26.2 18.175 26.1875C16.8375 26.1625 15.5 25.9625 14.225 25.5875C13.1 25.25 12.025 24.7875 11.0125 24.2C10.125 23.6875 9.3 23.1 8.525 22.4375C7.8875 21.8875 7.3 21.3 6.75 20.675C6.375 20.2375 6.0125 19.775 5.675 19.3C5.5375 19.1125 5.4125 18.9125 5.3 18.7125L2 15.15V7.0875C2 3.175 5.1625 0 9.075 0H15.3875L20.0625 4.75C30.6125 11.925 27.2 19.8375 27.2 19.8375C27.2 19.8375 30.2 23.2125 29 26.175V26.175Z" fill="white"/>
<path d="M20.0873 4.75C30.6373 11.925 27.2248 19.8375 27.2248 19.8375C27.2248 19.8375 30.2248 23.225 29.0123 26.1875C29.0123 26.1875 27.7748 24.1125 25.6998 24.1125C23.6998 24.1125 22.5248 26.1875 18.4998 26.1875C9.5373 26.1875 5.2998 18.7 5.2998 18.7C13.3748 24.0125 18.8873 20.25 18.8873 20.25C15.2498 18.1375 7.5123 8.0375 7.5123 8.0375C14.2498 13.775 17.1623 15.2875 17.1623 15.2875C15.4248 13.85 10.5498 6.825 10.5498 6.825C14.4498 10.775 22.1998 16.2875 22.1998 16.2875C24.3998 10.1875 20.0873 4.75 20.0873 4.75Z" fill="#1C1A22"/>
</g>
<path d="M7.89603 53.144C7.28003 53.144 6.74403 53.032 6.28803 52.808C5.83203 52.584 5.48003 52.272 5.23203 51.872C4.98403 51.472 4.86003 51.008 4.86003 50.48H5.91603C5.91603 50.808 5.99203 51.112 6.14403 51.392C6.29603 51.664 6.51603 51.884 6.80403 52.052C7.10003 52.212 7.46403 52.292 7.89603 52.292C8.46403 52.292 8.90403 52.156 9.21603 51.884C9.52803 51.612 9.68403 51.272 9.68403 50.864C9.68403 50.528 9.61203 50.26 9.46803 50.06C9.32403 49.852 9.12803 49.684 8.88003 49.556C8.64003 49.428 8.36003 49.316 8.04003 49.22C7.72803 49.124 7.40003 49.016 7.05603 48.896C6.40803 48.672 5.92803 48.396 5.61603 48.068C5.30403 47.732 5.14803 47.296 5.14803 46.76C5.14003 46.312 5.24403 45.916 5.46003 45.572C5.67603 45.22 5.98003 44.948 6.37203 44.756C6.77203 44.556 7.24403 44.456 7.78803 44.456C8.32403 44.456 8.78803 44.556 9.18003 44.756C9.58003 44.956 9.88803 45.232 10.104 45.584C10.328 45.936 10.444 46.336 10.452 46.784H9.39603C9.39603 46.552 9.33603 46.324 9.21603 46.1C9.09603 45.868 8.91203 45.68 8.66403 45.536C8.42403 45.392 8.12003 45.32 7.75203 45.32C7.29603 45.312 6.92003 45.428 6.62403 45.668C6.33603 45.908 6.19203 46.24 6.19203 46.664C6.19203 47.024 6.29203 47.3 6.49203 47.492C6.70003 47.684 6.98803 47.844 7.35603 47.972C7.72403 48.092 8.14803 48.232 8.62803 48.392C9.02803 48.536 9.38803 48.704 9.70803 48.896C10.028 49.088 10.276 49.336 10.452 49.64C10.636 49.944 10.728 50.332 10.728 50.804C10.728 51.204 10.624 51.584 10.416 51.944C10.208 52.296 9.89203 52.584 9.46803 52.808C9.05203 53.032 8.52803 53.144 7.89603 53.144ZM13.0575 53L11.3175 47.048H12.3255L13.5855 51.716L14.9775 47.048H16.1175L17.5215 51.716L18.7695 47.048H19.7895L18.0495 53H17.0175L15.5535 48.092L14.0895 53H13.0575ZM21.2764 45.728C21.0764 45.728 20.9084 45.664 20.7724 45.536C20.6444 45.4 20.5804 45.232 20.5804 45.032C20.5804 44.84 20.6444 44.68 20.7724 44.552C20.9084 44.424 21.0764 44.36 21.2764 44.36C21.4684 44.36 21.6324 44.424 21.7684 44.552C21.9044 44.68 21.9724 44.84 21.9724 45.032C21.9724 45.232 21.9044 45.4 21.7684 45.536C21.6324 45.664 21.4684 45.728 21.2764 45.728ZM20.7724 53V47.048H21.7804V53H20.7724ZM23.6195 53V47.9H22.7195V47.048H23.6195V46.016C23.6195 45.44 23.7635 45.02 24.0515 44.756C24.3395 44.492 24.7595 44.36 25.3115 44.36H25.9115V45.224H25.4675C25.1635 45.224 24.9475 45.288 24.8195 45.416C24.6915 45.536 24.6275 45.744 24.6275 46.04V47.048H26.0915V47.9H24.6275V53H23.6195ZM29.4036 53C28.8596 53 28.4316 52.868 28.1196 52.604C27.8076 52.34 27.6516 51.864 27.6516 51.176V47.9H26.6196V47.048H27.6516L27.7836 45.62H28.6596V47.048H30.4116V47.9H28.6596V51.176C28.6596 51.552 28.7356 51.808 28.8876 51.944C29.0396 52.072 29.3076 52.136 29.6916 52.136H30.3156V53H29.4036Z" fill="#CDCAD5"/>
<defs>
<clipPath id="clip0_4096_1668">
<rect width="32" height="32" fill="white" transform="translate(2)"/>
</clipPath>
</defs>
</svg>
