<svg width="36" height="57" viewBox="0 0 36 57" fill="none" xmlns="http://www.w3.org/2000/svg">
<g clip-path="url(#clip0_4096_1658)">
<path d="M22.1573 0L18 7.38996L13.8427 0H0L18 32L36 0H22.1573Z" fill="#898892"/>
<path d="M22.1575 0L18.0002 7.38996L13.8429 0H7.2002L18.0002 19.1991L28.8002 0H22.1575Z" fill="white"/>
</g>
<path d="M5.42 53L2.264 44.6H3.356L6.008 51.932L8.684 44.6H9.752L6.596 53H5.42ZM12.635 53.144C11.931 53.144 11.371 52.932 10.955 52.508C10.539 52.076 10.331 51.416 10.331 50.528V47.048H11.339V50.42C11.339 51.66 11.847 52.28 12.863 52.28C13.383 52.28 13.811 52.096 14.147 51.728C14.491 51.352 14.663 50.82 14.663 50.132V47.048H15.671V53H14.759L14.687 51.932C14.503 52.308 14.227 52.604 13.859 52.82C13.499 53.036 13.091 53.144 12.635 53.144ZM19.7662 53.144C19.1982 53.144 18.6942 53.016 18.2542 52.76C17.8142 52.496 17.4662 52.132 17.2102 51.668C16.9622 51.204 16.8382 50.656 16.8382 50.024C16.8382 49.4 16.9622 48.856 17.2102 48.392C17.4582 47.92 17.8022 47.556 18.2422 47.3C18.6902 47.036 19.2062 46.904 19.7902 46.904C20.3662 46.904 20.8622 47.036 21.2782 47.3C21.7022 47.556 22.0262 47.896 22.2502 48.32C22.4742 48.744 22.5862 49.2 22.5862 49.688C22.5862 49.776 22.5822 49.864 22.5742 49.952C22.5742 50.04 22.5742 50.14 22.5742 50.252H17.8342C17.8582 50.708 17.9622 51.088 18.1462 51.392C18.3382 51.688 18.5742 51.912 18.8542 52.064C19.1422 52.216 19.4462 52.292 19.7662 52.292C20.1822 52.292 20.5302 52.196 20.8102 52.004C21.0902 51.812 21.2942 51.552 21.4222 51.224H22.4182C22.2582 51.776 21.9502 52.236 21.4942 52.604C21.0462 52.964 20.4702 53.144 19.7662 53.144ZM19.7662 47.756C19.2862 47.756 18.8582 47.904 18.4822 48.2C18.1142 48.488 17.9022 48.912 17.8462 49.472H21.5902C21.5662 48.936 21.3822 48.516 21.0382 48.212C20.6942 47.908 20.2702 47.756 19.7662 47.756ZM24.0302 53.06C23.8302 53.06 23.6622 52.996 23.5262 52.868C23.3982 52.732 23.3342 52.568 23.3342 52.376C23.3342 52.184 23.3982 52.024 23.5262 51.896C23.6622 51.76 23.8302 51.692 24.0302 51.692C24.2222 51.692 24.3822 51.76 24.5102 51.896C24.6462 52.024 24.7142 52.184 24.7142 52.376C24.7142 52.568 24.6462 52.732 24.5102 52.868C24.3822 52.996 24.2222 53.06 24.0302 53.06ZM26.446 45.728C26.254 45.728 26.09 45.664 25.954 45.536C25.818 45.4 25.75 45.232 25.75 45.032C25.75 44.84 25.818 44.68 25.954 44.552C26.09 44.424 26.254 44.36 26.446 44.36C26.638 44.36 26.798 44.424 26.926 44.552C27.062 44.68 27.13 44.84 27.13 45.032C27.13 45.232 27.062 45.4 26.926 45.536C26.798 45.664 26.638 45.728 26.446 45.728ZM24.622 55.64V54.776H25.09C25.386 54.776 25.598 54.712 25.726 54.584C25.862 54.464 25.93 54.256 25.93 53.96V47.048H26.938V53.984C26.938 54.56 26.794 54.98 26.506 55.244C26.218 55.508 25.798 55.64 25.246 55.64H24.622ZM30.7322 53.144C30.0202 53.144 29.4282 52.964 28.9562 52.604C28.4842 52.244 28.2082 51.756 28.1282 51.14H29.1602C29.2242 51.452 29.3882 51.724 29.6522 51.956C29.9242 52.18 30.2882 52.292 30.7442 52.292C31.1682 52.292 31.4802 52.204 31.6802 52.028C31.8802 51.844 31.9802 51.628 31.9802 51.38C31.9802 51.02 31.8482 50.78 31.5842 50.66C31.3282 50.54 30.9642 50.432 30.4922 50.336C30.1722 50.272 29.8522 50.18 29.5322 50.06C29.2122 49.94 28.9442 49.772 28.7282 49.556C28.5122 49.332 28.4042 49.04 28.4042 48.68C28.4042 48.16 28.5962 47.736 28.9802 47.408C29.3722 47.072 29.9002 46.904 30.5642 46.904C31.1962 46.904 31.7122 47.064 32.1122 47.384C32.5202 47.696 32.7562 48.144 32.8202 48.728H31.8242C31.7842 48.424 31.6522 48.188 31.4282 48.02C31.2122 47.844 30.9202 47.756 30.5522 47.756C30.1922 47.756 29.9122 47.832 29.7122 47.984C29.5202 48.136 29.4242 48.336 29.4242 48.584C29.4242 48.824 29.5482 49.012 29.7962 49.148C30.0522 49.284 30.3962 49.4 30.8282 49.496C31.1962 49.576 31.5442 49.676 31.8722 49.796C32.2082 49.908 32.4802 50.08 32.6882 50.312C32.9042 50.536 33.0122 50.864 33.0122 51.296C33.0202 51.832 32.8162 52.276 32.4002 52.628C31.9922 52.972 31.4362 53.144 30.7322 53.144Z" fill="#CDCAD5"/>
<defs>
<clipPath id="clip0_4096_1658">
<rect width="36" height="32" fill="white"/>
</clipPath>
</defs>
</svg>
