<?xml version="1.0" encoding="utf-8"?><svg viewBox="0 0 41 40" xmlns="http://www.w3.org/2000/svg" xmlns:xlink="http://www.w3.org/1999/xlink"><style>:root>svg{display:none}:root>svg:target{display:block}</style><svg viewBox="0 0 41 17" id="arrow" xmlns="http://www.w3.org/2000/svg"><path d="M0 8.5h40M32 .5l8 8-8 8"/></svg><svg viewBox="0 0 10 18" id="arrow-slider-left" xmlns="http://www.w3.org/2000/svg"><path d="M9 1L1 9l8 8"/></svg><svg viewBox="0 0 10 18" id="arrow-slider-right" xmlns="http://www.w3.org/2000/svg"><path d="M1 1l8 8-8 8"/></svg><svg viewBox="0 0 14 8" id="arrow-top" xmlns="http://www.w3.org/2000/svg"><path d="M1 7l6-6 6 6"/></svg><svg viewBox="0 0 12 12" id="btn-figure" xmlns="http://www.w3.org/2000/svg"><path clip-rule="evenodd" d="M6 6.26A.26.26 0 016.26 6h5.479a.26.26 0 110 .522H6.522v5.217a.26.26 0 11-.522 0V6.272v-.011zm.522.262v5.217s0-5.217 5.217-5.217H6.522zM6 5.74a.26.26 0 01-.26.26H.26a.26.26 0 010-.522h5.217V.261A.26.26 0 116 .26v5.478zm-.522-.262V.261s0 5.217-5.217 5.217h5.217z"/></svg><svg viewBox="0 0 40 40" id="case_1" xmlns="http://www.w3.org/2000/svg"><path d="M15.29 19.707h9.697M15.29 12.918h9.697M15.29 26.496h9.697M22.05 6.567l13.575 13.575-13.574 13.574M17.95 33.71L4.374 20.137 17.949 6.562"/></svg><svg viewBox="0 0 40 40" id="case_10" xmlns="http://www.w3.org/2000/svg"><path d="M4.375 20.118h31.25M28.344 11.653l2.824-2.825M9.072 30.925l2.825-2.824M28.348 28.112l2.824 2.824M9.076 8.84l2.825 2.824M19.883 35.625V4.375"/></svg><svg viewBox="0 0 40 40" id="case_11" xmlns="http://www.w3.org/2000/svg"><path d="M19.807 4.375l11.538 11.539-11.538 11.538"/><path d="M20.287 35.624L8.75 24.086l11.538-11.538M23.411 15.913l-7.692 7.692"/></svg><svg viewBox="0 0 40 40" id="case_12" xmlns="http://www.w3.org/2000/svg"><path d="M4.375 20.162h31.25M20.16 35.625V4.375M4.375 14.14h31.25M14.14 35.625V4.375M4.375 25.86h31.25M25.86 35.625V4.375"/></svg><svg viewBox="0 0 40 40" id="case_13" xmlns="http://www.w3.org/2000/svg"><path d="M4.375 20.352h31.25M28.348 11.886l2.824-2.824M9.074 31.159l2.825-2.825M22.791 17.755l.959-.958M16.25 24.296l.959-.959M28.346 28.346l2.824 2.824M9.074 9.073l2.825 2.825M22.791 23.341l.959.959M16.25 16.8l.959.959"/></svg><svg viewBox="0 0 40 40" id="case_14" xmlns="http://www.w3.org/2000/svg"><path d="M19.88 4.375v3.994M19.88 31.63v3.994M31.627 19.882h3.994M4.373 19.882h3.994M8.602 27.871L19.88 16.593 31.158 27.87"/><path d="M31.158 11.893L19.88 23.171 8.602 11.893"/></svg><svg viewBox="0 0 40 40" id="case_2" xmlns="http://www.w3.org/2000/svg"><path d="M35.625 35.624H4.375M8.77 27.93l11.278-11.278L31.326 27.93M27.08 8.281h4.15M8.281 8.281h4.15M20 4.375v31.25"/></svg><svg viewBox="0 0 40 40" id="case_3" xmlns="http://www.w3.org/2000/svg"><path d="M32.611 27.08v4.15M32.611 8.28v4.151M27.031 35.624L11.406 20 27.031 4.376"/><path d="M15.313 8.28L27.03 20 15.313 31.718"/><path d="M7.5 8.28L19.219 20 7.5 31.718"/></svg><svg viewBox="0 0 40 40" id="case_4" xmlns="http://www.w3.org/2000/svg"><path d="M28.2 19.69h6.806M20.541 28.199v6.806M4.375 19.69h6.807M20.541 4.375v6.807M24.797 7.985h7.22v7.22M15.203 32.015h-7.22v-7.22"/></svg><svg viewBox="0 0 40 40" id="case_5" xmlns="http://www.w3.org/2000/svg"><path d="M20.156 4.375v31.25M8.926 20.048L20.204 8.77l11.278 11.278"/><path d="M8.926 23.954l11.278-11.278 11.278 11.278M27.236 35.137h4.15M8.438 35.137h4.15"/></svg><svg viewBox="0 0 40 40" id="case_6" xmlns="http://www.w3.org/2000/svg"><path d="M33.352 26.696l-8.928 8.929M33.352 4.375l-8.928 8.93M24.419 26.696l-8.929 8.929M6.562 15.536l8.928 8.929M24.419 4.375l-8.929 8.93M15.491 26.696l-8.928 8.929M15.495 15.536l8.929 8.929M15.495 4.375l-8.929 8.93M24.423 15.536l8.929 8.929"/></svg><svg viewBox="0 0 40 40" id="case_7" xmlns="http://www.w3.org/2000/svg"><path d="M15.646 35.625v-6.579M7.188 35.625V18.238M24.105 35.625V4.375M32.565 35.625V15.653"/></svg><svg viewBox="0 0 40 40" id="case_8" xmlns="http://www.w3.org/2000/svg"><path d="M4.375 19.883h31.25M19.88 4.375v31.25M8.605 25.521l11.279-11.278L31.162 25.52"/><path d="M31.158 14.244L19.88 25.522 8.602 14.244"/></svg><svg viewBox="0 0 40 40" id="case_9" xmlns="http://www.w3.org/2000/svg"><path d="M4.375 4.375L20 20 4.375 35.627M35.625 35.625L20 20 35.625 4.375M31.719 4.375L20 16.095 8.281 4.374"/><path d="M4.375 8.281L16.094 20 4.375 31.719M31.719 35.625L20 23.906 8.281 35.625M35.625 8.281L23.906 20l11.719 11.719"/></svg><svg viewBox="0 0 13 14" id="close" xmlns="http://www.w3.org/2000/svg"><path d="M0 12L11.314.686l.707.707L.707 12.707z"/><path d="M1 1l11.314 11.314-.707.707L.293 1.707z"/></svg><svg viewBox="0 0 16 8" id="menu" xmlns="http://www.w3.org/2000/svg"><path d="M0 0h16v1H0zM0 7h16v1H0z"/></svg></svg>