<svg width="53" height="55" viewBox="0 0 53 55" fill="none" xmlns="http://www.w3.org/2000/svg">
<g clip-path="url(#clip0_4115_1027)">
<path d="M51.5488 34.3984L52.9839 33.5274L53.0008 1.52119L51.6042 0.163097L51.583 13.3066L51.5488 34.3984Z" fill="#CDCAD5"/>
<path d="M43.825 12.7451C43.8088 12.7609 43.7927 12.7767 43.7753 12.7935C43.7638 12.8044 43.7512 12.8162 43.7393 12.8275C43.7239 12.8422 43.7089 12.8567 43.6926 12.872C43.6793 12.8844 43.6651 12.8975 43.6514 12.9103C43.6349 12.9256 43.6188 12.9407 43.6016 12.9565C43.5865 12.9703 43.5707 12.9846 43.5552 12.9988C43.5379 13.0146 43.5206 13.0302 43.5023 13.0466C43.4856 13.0615 43.4682 13.0771 43.4509 13.0926C43.4325 13.1088 43.4142 13.125 43.3951 13.1419C43.3767 13.158 43.3574 13.1747 43.3383 13.1913C43.3189 13.2082 43.2995 13.2248 43.2794 13.2421C43.2591 13.2595 43.2381 13.2773 43.2171 13.2952C43.1969 13.3123 43.1766 13.3295 43.1556 13.3469C43.1338 13.3652 43.1115 13.3837 43.0888 13.4025C43.0672 13.4203 43.0454 13.4383 43.0231 13.4565C42.9996 13.4756 42.9757 13.4949 42.9515 13.5145C42.9287 13.5328 42.9054 13.5515 42.8819 13.5702C42.8572 13.5898 42.8322 13.6097 42.8068 13.6297C42.7823 13.6488 42.7575 13.6683 42.7322 13.6877C42.7061 13.7081 42.6798 13.7284 42.6528 13.749C42.6271 13.7686 42.6012 13.7883 42.5747 13.8083C42.547 13.8292 42.5192 13.8502 42.4906 13.8714C42.4636 13.8916 42.4359 13.912 42.4082 13.9323C42.3791 13.9537 42.3497 13.9752 42.3199 13.9968C42.2916 14.0172 42.263 14.0379 42.2342 14.0584C42.203 14.0807 42.1722 14.1027 42.1403 14.1251C42.1111 14.1458 42.081 14.1666 42.051 14.1874C42.0186 14.2101 41.9862 14.2326 41.9529 14.2553C41.922 14.2765 41.8902 14.2977 41.8586 14.319C41.8248 14.3418 41.7915 14.3645 41.7569 14.3874C41.7245 14.409 41.6909 14.4307 41.6578 14.4524C41.6226 14.4754 41.588 14.4984 41.5521 14.5214C41.5181 14.5433 41.483 14.5653 41.4483 14.5872C41.412 14.6103 41.376 14.6334 41.339 14.6566C41.3031 14.6789 41.266 14.7015 41.2296 14.7239C41.192 14.747 41.1551 14.7699 41.1169 14.793C41.0431 14.8376 40.9681 14.8823 40.8915 14.927C40.856 14.9478 40.8188 14.9687 40.7826 14.9895C40.7393 15.0145 40.6967 15.0393 40.6526 15.0642C40.6132 15.0865 40.5727 15.1086 40.5325 15.1309C40.4902 15.1544 40.4482 15.178 40.4053 15.2014C40.3635 15.2241 40.3208 15.2467 40.2785 15.2693C40.2354 15.2925 40.1926 15.3156 40.1487 15.3386C40.106 15.3611 40.0621 15.3835 40.0185 15.406C39.9735 15.4292 39.9287 15.4523 39.8831 15.4755C39.8393 15.4976 39.7944 15.5197 39.7499 15.5418C39.7031 15.565 39.6565 15.5883 39.6088 15.6113C39.5638 15.6332 39.5179 15.6551 39.4721 15.6768C39.4237 15.6999 39.3753 15.723 39.326 15.746C39.2793 15.7677 39.2317 15.7895 39.1842 15.8111C39.1346 15.8338 39.085 15.8563 39.0347 15.8789C38.9865 15.9005 38.9376 15.9218 38.8887 15.9433C38.8375 15.9657 38.786 15.988 38.7338 16.0103C38.6843 16.0315 38.6341 16.0525 38.5837 16.0736C38.5312 16.0955 38.4784 16.1175 38.425 16.1392C38.3738 16.16 38.3223 16.1808 38.2704 16.2015C38.216 16.2231 38.1613 16.2445 38.1063 16.266C38.054 16.2863 38.0016 16.3064 37.9486 16.3265C37.9235 16.336 37.8993 16.3457 37.874 16.3551L40.2237 16.6445C40.5117 16.5302 42.6937 15.6506 43.9222 14.7809L43.9156 12.6558C43.895 12.6765 43.8727 12.6986 43.8492 12.7217C43.8415 12.7292 43.8329 12.7375 43.825 12.7451Z" fill="#CDCAD5"/>
<path d="M37.4297 9.43288V16.2279C37.4706 16.2135 37.5118 16.199 37.5522 16.1844C37.6195 16.1601 37.6864 16.1358 37.7523 16.1112C37.82 16.086 37.8868 16.0605 37.9532 16.0349C38.0205 16.009 38.0877 15.9829 38.154 15.9566C38.2159 15.932 38.2768 15.9073 38.3376 15.8825C38.4066 15.8543 38.4754 15.8259 38.5431 15.7974C38.5985 15.774 38.6528 15.7507 38.7073 15.7272C38.7782 15.6965 38.8489 15.6657 38.9183 15.6348C38.9668 15.6131 39.0146 15.5913 39.0625 15.5695C39.1358 15.536 39.2089 15.5025 39.2807 15.4687C39.3215 15.4495 39.3616 15.4302 39.402 15.4109C39.4786 15.3742 39.5549 15.3373 39.6295 15.3003C39.6623 15.2841 39.6944 15.2678 39.7268 15.2514C39.8072 15.2111 39.8872 15.1706 39.9653 15.1298C39.9893 15.1173 40.0128 15.1047 40.0367 15.0922C40.1213 15.0477 40.2051 15.0031 40.2869 14.9584C40.3023 14.95 40.3175 14.9415 40.3329 14.9332C40.4215 14.8844 40.5089 14.8357 40.5943 14.7869C40.6016 14.7829 40.6086 14.7787 40.6158 14.7746C42.8497 13.4955 43.9321 12.2476 43.947 12.2301L44.1838 11.9516L44.1933 14.9183L44.1932 14.9184L44.2522 33.9285L51.2785 34.4922L51.3128 13.2947L51.3343 -0.000255585L45.4706 0.863182C44.4557 5.96482 38.2134 9.0626 37.4297 9.43288Z" fill="#CDCAD5"/>
<path d="M23.8564 23.1214L27.0838 34.9111L30.1381 34.8593L25.3873 17.5696L23.8564 23.1214Z" fill="#CDCAD5"/>
<path d="M26.879 35.1852L20.2193 35.2982L23.5768 23.1215L23.5771 23.1203L25.3884 16.5519L30.4916 35.1239L26.879 35.1852ZM43.1051 50.322L30.3376 7.37772L20.1702 5.56712L15.2085 20.1816L3.3877 55L15.1658 53.6257L17.9972 43.3575L29.1566 42.7008L32.5192 42.5029L32.5481 42.6084L34.884 51.1089L43.1051 50.322Z" fill="#CDCAD5"/>
<path d="M15.9134 7.71183L0 53.1483L3.11592 54.959L15.0903 19.6882L19.8438 5.68679L15.9134 7.71183Z" fill="#CDCAD5"/>
<path d="M29.5059 42.9504L31.6908 50.8076L34.6006 51.0996L32.3158 42.7851L29.5059 42.9504Z" fill="#CDCAD5"/>
</g>
<defs>
<clipPath id="clip0_4115_1027">
<rect width="53" height="55" fill="white"/>
</clipPath>
</defs>
</svg>
