<svg width="35" height="36" viewBox="0 0 35 36" fill="none" xmlns="http://www.w3.org/2000/svg">
<g clip-path="url(#clip0_4115_1037)">
<path d="M34.041 22.5156L34.9887 21.9455L34.9999 0.99597L34.0776 0.107038L34.0636 8.71004L34.041 22.5156Z" fill="#CDCAD5"/>
<path d="M28.9406 8.34221C28.9299 8.35255 28.9193 8.36289 28.9078 8.37385C28.9002 8.38101 28.8919 8.3887 28.884 8.39613C28.8739 8.40576 28.864 8.41522 28.8532 8.42521C28.8444 8.43334 28.8351 8.44191 28.826 8.45031C28.8151 8.4603 28.8045 8.4702 28.7931 8.48054C28.7831 8.48955 28.7727 8.49892 28.7624 8.5082C28.751 8.51854 28.7396 8.5288 28.7276 8.53949C28.7165 8.5493 28.705 8.55947 28.6936 8.56963C28.6814 8.58024 28.6694 8.59085 28.6567 8.6019C28.6446 8.61241 28.6318 8.62337 28.6192 8.63425C28.6064 8.64529 28.5936 8.65617 28.5803 8.66748C28.567 8.67888 28.553 8.69055 28.5392 8.70222C28.5258 8.71344 28.5124 8.72467 28.4986 8.73607C28.4842 8.74809 28.4694 8.7602 28.4544 8.77249C28.4402 8.78415 28.4258 8.79591 28.4111 8.80784C28.3956 8.82031 28.3798 8.83295 28.3638 8.84576C28.3487 8.85778 28.3334 8.86998 28.3178 8.88227C28.3015 8.89508 28.285 8.90807 28.2682 8.92116C28.2521 8.93371 28.2357 8.94644 28.219 8.95916C28.2018 8.97251 28.1844 8.98577 28.1665 8.99929C28.1496 9.01211 28.1324 9.02502 28.115 9.0381C28.0967 9.0518 28.0783 9.0655 28.0595 9.07937C28.0416 9.09263 28.0233 9.10598 28.005 9.11924C27.9858 9.13329 27.9664 9.14735 27.9467 9.16149C27.928 9.17483 27.9091 9.18836 27.8901 9.20179C27.8695 9.21638 27.8492 9.23078 27.8281 9.24546C27.8088 9.25898 27.7889 9.27259 27.7691 9.2862C27.7477 9.30105 27.7263 9.31581 27.7044 9.33066C27.6839 9.34454 27.663 9.35842 27.6421 9.37238C27.6198 9.38732 27.5977 9.40217 27.5749 9.41711C27.5535 9.43125 27.5314 9.44548 27.5095 9.45971C27.4862 9.47474 27.4634 9.48976 27.4396 9.50488C27.4172 9.5192 27.394 9.53361 27.3711 9.54792C27.3471 9.56304 27.3234 9.57815 27.2989 9.59336C27.2752 9.60794 27.2508 9.6227 27.2267 9.63737C27.2019 9.65249 27.1775 9.66751 27.1522 9.68263C27.1035 9.7118 27.054 9.74105 27.0034 9.77031C26.98 9.78392 26.9554 9.79762 26.9315 9.81124C26.9029 9.82759 26.8748 9.84385 26.8457 9.86012C26.8196 9.8747 26.7929 9.88919 26.7664 9.90378C26.7384 9.91916 26.7107 9.93463 26.6823 9.94992C26.6547 9.96477 26.6266 9.97962 26.5986 9.99438C26.5702 10.0096 26.5419 10.0247 26.5129 10.0397C26.4847 10.0545 26.4557 10.0692 26.4269 10.0838C26.3972 10.099 26.3676 10.1141 26.3375 10.1293C26.3086 10.1438 26.2789 10.1583 26.2495 10.1727C26.2186 10.1879 26.1878 10.2032 26.1564 10.2183C26.1266 10.2326 26.0963 10.2469 26.0661 10.2611C26.0341 10.2763 26.0022 10.2914 25.9696 10.3064C25.9387 10.3206 25.9073 10.3349 25.8759 10.349C25.8432 10.3638 25.8104 10.3786 25.7772 10.3934C25.7454 10.4075 25.7131 10.4215 25.6808 10.4355C25.647 10.4502 25.613 10.4648 25.5785 10.4794C25.5458 10.4932 25.5127 10.507 25.4794 10.5208C25.4447 10.5351 25.4098 10.5495 25.3746 10.5638C25.3408 10.5774 25.3068 10.591 25.2725 10.6045C25.2366 10.6187 25.2004 10.6327 25.1641 10.6468C25.1296 10.66 25.095 10.6732 25.06 10.6864C25.0434 10.6926 25.0274 10.6989 25.0107 10.7051L26.5624 10.8945C26.7526 10.8197 28.1936 10.244 29.0049 9.67467L29.0005 8.28369C28.9868 8.29731 28.9721 8.31171 28.9566 8.32683C28.9515 8.33178 28.9459 8.33717 28.9406 8.34221Z" fill="#CDCAD5"/>
<path d="M24.7178 6.17469V10.6223C24.7448 10.6129 24.772 10.6034 24.7987 10.5939C24.8431 10.578 24.8873 10.5621 24.9308 10.546C24.9755 10.5294 25.0196 10.5127 25.0635 10.496C25.1079 10.4791 25.1523 10.462 25.1961 10.4448C25.237 10.4287 25.2772 10.4125 25.3173 10.3962C25.3629 10.3778 25.4084 10.3592 25.4531 10.3406C25.4896 10.3253 25.5255 10.31 25.5615 10.2946C25.6083 10.2745 25.655 10.2544 25.7008 10.2341C25.7329 10.2199 25.7644 10.2057 25.796 10.1914C25.8445 10.1694 25.8927 10.1475 25.9401 10.1254C25.9671 10.1129 25.9936 10.1002 26.0202 10.0876C26.0708 10.0636 26.1212 10.0394 26.1705 10.0152C26.1922 10.0046 26.2133 9.9939 26.2347 9.9832C26.2878 9.95678 26.3406 9.93026 26.3922 9.90357C26.4081 9.89543 26.4236 9.88713 26.4394 9.87899C26.4953 9.84983 26.5506 9.82066 26.6046 9.7914C26.6148 9.78592 26.6248 9.78035 26.635 9.77487C26.6935 9.74296 26.7512 9.71106 26.8076 9.67915C26.8124 9.6765 26.8171 9.67375 26.8218 9.6711C28.297 8.83388 29.0118 8.01708 29.0217 8.00559L29.1781 7.82333L29.1843 9.76515L29.1842 9.76524L29.2232 22.2082L33.8632 22.5771L33.8859 8.70245L33.9001 0.000276566L30.0278 0.565437C29.3576 3.90469 25.2354 5.93233 24.7178 6.17469Z" fill="#CDCAD5"/>
<path d="M15.7549 15.1347L17.8861 22.8516L19.9032 22.8176L16.7659 11.5007L15.7549 15.1347Z" fill="#CDCAD5"/>
<path d="M17.7504 23.0303L13.3525 23.1043L15.5698 15.1341L15.5699 15.1333L16.766 10.8339L20.1361 22.9902L17.7504 23.0303ZM28.4658 32.938L20.0344 4.82905L13.3201 3.64393L10.0435 13.2098L2.2373 36L10.0153 35.1005L11.8851 28.3794L19.2545 27.9496L21.4751 27.8201L21.4942 27.8892L23.0367 33.4531L28.4658 32.938Z" fill="#CDCAD5"/>
<path d="M10.5088 5.04823L0 34.7884L2.05768 35.9736L9.96529 12.8873L13.1044 3.72274L10.5088 5.04823Z" fill="#CDCAD5"/>
<path d="M19.4854 28.1132L20.9282 33.2562L22.8498 33.4473L21.341 28.0051L19.4854 28.1132Z" fill="#CDCAD5"/>
</g>
<defs>
<clipPath id="clip0_4115_1037">
<rect width="35" height="36" fill="white"/>
</clipPath>
</defs>
</svg>
