<svg width="34" height="70" viewBox="0 0 34 70" fill="none" xmlns="http://www.w3.org/2000/svg">
<path fill-rule="evenodd" clip-rule="evenodd" d="M11.4126 33.2533C11.4126 33.2533 9.75555 34.2089 12.5932 34.5318C16.0319 34.9209 17.7883 34.8649 21.5765 34.1547C21.5765 34.1547 22.5738 34.7736 23.966 35.309C15.4715 38.9164 4.74147 35.1004 11.4126 33.2533ZM10.3743 28.5459C10.3743 28.5459 8.51525 29.9096 11.3554 30.2007C15.0288 30.5766 17.9283 30.6073 22.9488 29.6499C22.9488 29.6499 23.642 30.3473 24.733 30.7282C14.464 33.7049 3.02717 30.9626 10.3743 28.5459Z" fill="white"/>
<path fill-rule="evenodd" clip-rule="evenodd" d="M19.1253 20.5595C21.2193 22.9483 18.5764 25.0967 18.5764 25.0967C18.5764 25.0967 23.891 22.3783 21.4501 18.9728C19.171 15.7985 17.4229 14.2215 26.8856 8.7832C26.8852 8.78285 12.0316 12.4583 19.1253 20.5595Z" fill="white"/>
<path fill-rule="evenodd" clip-rule="evenodd" d="M30.359 36.7361C30.359 36.7361 31.5856 37.7384 29.0078 38.5135C24.1061 39.9849 8.60242 40.4287 4.29596 38.572C2.74901 37.9043 5.65142 36.9786 6.56454 36.7831C7.5169 36.5791 8.06038 36.6162 8.06038 36.6162C6.33887 35.4148 -3.06697 38.9758 3.28349 39.9974C20.6001 42.7801 34.8501 38.7447 30.359 36.7361ZM12.2106 23.6685C12.2106 23.6685 4.32547 25.5252 9.41872 26.2001C11.57 26.4851 15.8552 26.4194 19.85 26.0873C23.1137 25.8159 26.3898 25.2352 26.3898 25.2352C26.3898 25.2352 25.2398 25.7242 24.4066 26.2871C16.398 28.3749 0.929246 27.4025 5.38292 25.2684C9.14842 23.4631 12.2106 23.6685 12.2106 23.6685ZM26.357 31.5043C34.4974 27.313 30.7337 23.2844 28.1059 23.8273C27.4634 23.9603 27.1751 24.0752 27.1751 24.0752C27.1751 24.0752 27.4148 23.7035 27.8705 23.5437C33.0681 21.7334 37.0647 28.8843 26.1947 31.7161C26.1943 31.7161 26.3196 31.6041 26.357 31.5043Z" fill="white"/>
<path fill-rule="evenodd" clip-rule="evenodd" d="M21.4495 0C21.4495 0 25.9568 4.46987 17.1733 11.3411C10.1292 16.855 15.5673 19.9979 17.1711 23.5903C13.0586 19.9138 10.0421 16.6767 12.0656 13.6647C15.0364 9.24329 23.2682 7.09914 21.4495 0Z" fill="white"/>
<path fill-rule="evenodd" clip-rule="evenodd" d="M13.0121 42.8652C20.8245 43.3603 32.824 42.5902 33.1087 38.9258C33.1087 38.9258 32.5623 40.3148 26.6513 41.4167C19.9823 42.6608 11.7556 42.516 6.87793 41.7181C6.87793 41.7181 7.87743 42.5378 13.0121 42.8652Z" fill="white"/>
<path d="M7.76 64.144C7 64.144 6.404 63.932 5.972 63.508C5.54 63.084 5.324 62.496 5.324 61.744H6.344C6.344 62.168 6.448 62.524 6.656 62.812C6.864 63.1 7.228 63.244 7.748 63.244C8.252 63.244 8.6 63.104 8.792 62.824C8.992 62.544 9.092 62.196 9.092 61.78V55.6H10.1V61.78C10.1 62.524 9.892 63.104 9.476 63.52C9.068 63.936 8.496 64.144 7.76 64.144ZM13.5563 64.144C13.0603 64.144 12.6483 64.06 12.3203 63.892C11.9923 63.724 11.7483 63.5 11.5883 63.22C11.4283 62.94 11.3483 62.636 11.3483 62.308C11.3483 61.7 11.5803 61.232 12.0443 60.904C12.5083 60.576 13.1403 60.412 13.9403 60.412H15.5483V60.34C15.5483 59.82 15.4123 59.428 15.1403 59.164C14.8683 58.892 14.5043 58.756 14.0483 58.756C13.6563 58.756 13.3163 58.856 13.0283 59.056C12.7483 59.248 12.5723 59.532 12.5003 59.908H11.4683C11.5083 59.476 11.6523 59.112 11.9003 58.816C12.1563 58.52 12.4723 58.296 12.8483 58.144C13.2243 57.984 13.6243 57.904 14.0483 57.904C14.8803 57.904 15.5043 58.128 15.9203 58.576C16.3443 59.016 16.5563 59.604 16.5563 60.34V64H15.6563L15.5963 62.932C15.4283 63.268 15.1803 63.556 14.8523 63.796C14.5323 64.028 14.1003 64.144 13.5563 64.144ZM13.7123 63.292C14.0963 63.292 14.4243 63.192 14.6963 62.992C14.9763 62.792 15.1883 62.532 15.3323 62.212C15.4763 61.892 15.5483 61.556 15.5483 61.204V61.192H14.0243C13.4323 61.192 13.0123 61.296 12.7643 61.504C12.5243 61.704 12.4043 61.956 12.4043 62.26C12.4043 62.572 12.5163 62.824 12.7403 63.016C12.9723 63.2 13.2963 63.292 13.7123 63.292ZM19.3218 64L17.0658 58.048H18.1218L19.9098 63.028L21.7098 58.048H22.7418L20.4858 64H19.3218ZM25.2989 64.144C24.8029 64.144 24.3909 64.06 24.0629 63.892C23.7349 63.724 23.4909 63.5 23.3309 63.22C23.1709 62.94 23.0909 62.636 23.0909 62.308C23.0909 61.7 23.3229 61.232 23.7869 60.904C24.2509 60.576 24.8829 60.412 25.6829 60.412H27.2909V60.34C27.2909 59.82 27.1549 59.428 26.8829 59.164C26.6109 58.892 26.2469 58.756 25.7909 58.756C25.3989 58.756 25.0589 58.856 24.7709 59.056C24.4909 59.248 24.3149 59.532 24.2429 59.908H23.2109C23.2509 59.476 23.3949 59.112 23.6429 58.816C23.8989 58.52 24.2149 58.296 24.5909 58.144C24.9669 57.984 25.3669 57.904 25.7909 57.904C26.6229 57.904 27.2469 58.128 27.6629 58.576C28.0869 59.016 28.2989 59.604 28.2989 60.34V64H27.3989L27.3389 62.932C27.1709 63.268 26.9229 63.556 26.5949 63.796C26.2749 64.028 25.8429 64.144 25.2989 64.144ZM25.4549 63.292C25.8389 63.292 26.1669 63.192 26.4389 62.992C26.7189 62.792 26.9309 62.532 27.0749 62.212C27.2189 61.892 27.2909 61.556 27.2909 61.204V61.192H25.7669C25.1749 61.192 24.7549 61.296 24.5069 61.504C24.2669 61.704 24.1469 61.956 24.1469 62.26C24.1469 62.572 24.2589 62.824 24.4829 63.016C24.7149 63.2 25.0389 63.292 25.4549 63.292Z" fill="#CDCAD5"/>
</svg>
