<svg width="107" height="54" viewBox="0 0 107 54" fill="none" xmlns="http://www.w3.org/2000/svg">
<path d="M98.4266 10.6455C98.1659 10.6455 97.9127 10.6989 97.6885 10.8249L90.5946 14.8924C90.1355 15.1549 89.8564 15.651 89.8564 16.1786V24.2991C89.8564 24.8264 90.1355 25.3217 90.5946 25.585L92.4472 26.645C93.3473 27.0856 93.6793 27.0786 94.089 27.0786C95.4216 27.0786 96.1823 26.2757 96.1823 24.8802V16.8688C96.1823 16.7555 96.0835 16.6745 95.9715 16.6745H95.0829C94.969 16.6745 94.8721 16.7576 94.8721 16.8688V24.8843C94.8721 25.5029 94.2232 26.1252 93.1702 25.6022L91.2443 24.4807C91.1763 24.4439 91.1238 24.3768 91.1238 24.3013V16.1808C91.1238 16.1039 91.1757 16.0254 91.2443 15.9865L98.3234 11.9335C98.3897 11.8957 98.4686 11.8957 98.5342 11.9335L105.613 15.9865C105.681 16.0266 105.734 16.1014 105.734 16.1808V24.3013C105.734 24.3789 105.695 24.4583 105.628 24.4957L98.5344 28.5487C98.4716 28.5846 98.3878 28.5846 98.3236 28.5487L96.5011 27.472C96.4467 27.4404 96.3728 27.4429 96.3205 27.472C95.8174 27.7551 95.7228 27.7879 95.2512 27.9505C95.135 27.9906 94.9581 28.0532 95.3115 28.2498L97.6912 29.6423C97.9177 29.7724 98.1701 29.8367 98.4293 29.8367C98.692 29.8367 98.9407 29.7743 99.1674 29.6423L106.261 25.5894C106.72 25.3241 106.999 24.8307 106.999 24.3034V16.1829C106.999 15.6554 106.72 15.1603 106.261 14.8968L99.1674 10.8292C98.9451 10.7033 98.6901 10.6499 98.4293 10.6499L98.4266 10.6455ZM100.324 16.4481C98.3043 16.4481 97.1013 17.3017 97.1013 18.7211C97.1013 20.2592 98.2953 20.684 100.234 20.8744C102.554 21.0999 102.734 21.4381 102.734 21.8914C102.734 22.6777 102.103 23.0129 100.611 23.0129C98.736 23.0129 98.3238 22.5482 98.1858 21.6203C98.1695 21.521 98.0925 21.441 97.9901 21.441H97.069C97.0135 21.4422 96.9606 21.4646 96.9213 21.5036C96.8821 21.5426 96.8595 21.5951 96.8582 21.6503C96.8582 22.8356 97.5076 24.2373 100.609 24.2373C102.853 24.2373 104.148 23.3644 104.148 21.8296C104.148 20.3124 103.102 19.9023 100.925 19.6161C98.727 19.3251 98.5151 19.1859 98.5151 18.6739C98.5151 18.2516 98.6931 17.6867 100.323 17.6867C101.778 17.6867 102.316 17.9984 102.537 18.9728C102.556 19.0643 102.637 19.1391 102.732 19.1391H103.653C103.71 19.1391 103.765 19.1046 103.804 19.0643C103.843 19.0212 103.87 18.9728 103.864 18.9146C103.722 17.2365 102.595 16.4471 100.325 16.4471L100.324 16.4481Z" fill="#898892"/>
<path d="M56.7217 0.000271833C56.6425 0.000413882 56.5646 0.0210439 56.4958 0.0601312C56.4274 0.0998859 56.3706 0.156655 56.331 0.224845C56.2914 0.293035 56.2703 0.370293 56.27 0.449009V11.8892C56.27 12.0015 56.2172 12.102 56.1192 12.1584C56.0712 12.1862 56.0167 12.2008 55.9611 12.2008C55.9055 12.2008 55.8509 12.1862 55.8029 12.1584L53.9202 11.0817C53.7829 11.0028 53.627 10.9613 53.4683 10.9613C53.3097 10.9613 53.1538 11.0028 53.0165 11.0817L45.501 15.3885C45.2201 15.5494 45.0488 15.8591 45.0488 16.181V24.7947C45.0486 24.9524 45.0903 25.1072 45.1696 25.2438C45.249 25.3803 45.3632 25.4936 45.5008 25.5723L53.0165 29.8792C53.1538 29.9583 53.3096 30 53.4683 30C53.627 30 53.7829 29.9583 53.9202 29.8792L61.4359 25.5723C61.5735 25.4936 61.6877 25.3803 61.7671 25.2438C61.8464 25.1072 61.8881 24.9524 61.8878 24.7947V3.32018C61.8878 2.99345 61.7082 2.68688 61.421 2.52767L56.9478 0.0449585C56.8774 0.00609149 56.7996 -0.000559547 56.7217 0.000271833ZM8.37398 10.7525C8.23059 10.7583 8.09599 10.7831 7.96725 10.8573L0.451746 15.164C0.31407 15.2426 0.199764 15.3558 0.120427 15.4924C0.0410893 15.629 -0.000456779 15.7839 3.78799e-06 15.9416L0.0152852 27.5017C0.0152852 27.6626 0.0990186 27.8118 0.241366 27.8904C0.380991 27.9735 0.55411 27.9735 0.693108 27.8904L5.15129 25.348C5.43389 25.1817 5.6181 24.8916 5.6181 24.5707V19.1719C5.6181 18.8497 5.78871 18.5546 6.07026 18.3946L7.96808 17.303C8.10522 17.2238 8.26119 17.1824 8.41983 17.1832C8.57855 17.1823 8.73462 17.2236 8.87178 17.303L10.7688 18.3939C11.0499 18.554 11.2205 18.8495 11.2205 19.1713V24.5698C11.2205 24.8912 11.4089 25.183 11.6873 25.3472L16.1455 27.8895C16.2858 27.9727 16.4585 27.9727 16.5972 27.8895C16.7354 27.8106 16.8233 27.6615 16.8233 27.5009L16.8384 15.9412C16.8393 15.7834 16.7979 15.6283 16.7185 15.4917C16.6392 15.355 16.5246 15.2418 16.3867 15.1636L8.87115 10.8571C8.74408 10.7831 8.60885 10.7581 8.46441 10.7523L8.37398 10.7525ZM75.9101 10.8573C75.7514 10.8568 75.5955 10.8981 75.4581 10.977L67.9424 15.2839C67.6619 15.445 67.4902 15.7395 67.4902 16.0613V24.675C67.4902 24.9988 67.674 25.2923 67.9571 25.4523L75.4125 29.6716C75.6878 29.8275 76.0237 29.8393 76.3011 29.6862L80.8196 27.1887C80.963 27.1097 81.0599 26.9621 81.0603 26.8C81.0607 26.6379 80.9759 26.492 80.8342 26.4113L73.2731 22.1044C73.1316 22.0242 73.0324 21.8618 73.0324 21.7005V19.0071C73.0324 18.8462 73.1328 18.6986 73.2731 18.6184L75.6227 17.2724C75.7625 17.1922 75.9341 17.1922 76.0748 17.2724L78.4254 18.6184C78.4942 18.6577 78.5514 18.7143 78.5911 18.7826C78.6307 18.8508 78.6515 18.9283 78.6513 19.0071V21.1306C78.6511 21.2094 78.6719 21.2869 78.7115 21.3552C78.7512 21.4234 78.8083 21.48 78.8772 21.5193C79.0181 21.5999 79.1887 21.6004 79.3293 21.5193L83.8325 18.9177C84.112 18.7564 84.2847 18.4611 84.2847 18.1404V16.0619C84.2847 15.9043 84.2429 15.7495 84.1636 15.613C84.0843 15.4765 83.9702 15.3632 83.8327 15.2844L76.3622 10.9774C76.2249 10.8985 76.0687 10.8567 75.9101 10.8573ZM53.4381 17.288C53.4801 17.2878 53.5216 17.298 53.5587 17.3177L56.1341 18.7982C56.204 18.8383 56.2547 18.9125 56.2547 18.9925V21.9535C56.2547 22.0339 56.2044 22.1079 56.1341 22.1478L53.5587 23.6283C53.4885 23.6678 53.4029 23.6678 53.3326 23.6283L50.7572 22.1478C50.687 22.1077 50.6366 22.0335 50.6366 21.9535V18.9921C50.6366 18.9119 50.6872 18.8383 50.7572 18.7978L53.3326 17.3175C53.3678 17.2973 53.3987 17.288 53.4381 17.288Z" fill="white"/>
<path d="M30.9509 10.8127C30.7922 10.8124 30.6362 10.8537 30.4987 10.9324L22.983 15.2244C22.7021 15.3853 22.5313 15.6952 22.5313 16.0169V24.6307C22.5308 24.7883 22.5724 24.9432 22.6517 25.0797C22.7311 25.2162 22.8454 25.3295 22.983 25.408L30.4987 29.715C30.636 29.7941 30.7918 29.8357 30.9506 29.8357C31.1093 29.8357 31.2651 29.7941 31.4024 29.715L38.9181 25.408C39.0557 25.3293 39.1699 25.216 39.2493 25.0795C39.3286 24.943 39.3703 24.7881 39.3701 24.6305V16.0167C39.3701 15.6946 39.1992 15.3849 38.9179 15.2242L31.4022 10.9322C31.2649 10.8532 31.1088 10.8118 30.95 10.8125L30.9509 10.8127ZM75.8948 18.4994C75.8649 18.4994 75.8316 18.4994 75.8044 18.514L74.3585 19.3516C74.3316 19.3665 74.309 19.3881 74.2932 19.4143C74.2773 19.4406 74.2687 19.4705 74.2681 19.5011V21.1461C74.2681 21.2081 74.3043 21.2646 74.3585 21.2958L75.8044 22.1182C75.8292 22.1335 75.8579 22.1416 75.8871 22.1416C75.9163 22.1416 75.9449 22.1335 75.9698 22.1182L77.4156 21.2958C77.4692 21.2652 77.5061 21.2081 77.5061 21.1461V19.5011C77.5061 19.4391 77.4694 19.3826 77.4156 19.3514L75.9698 18.5138C75.943 18.498 75.9245 18.4992 75.8944 18.4992L75.8948 18.4994Z" fill="#898892"/>
<path d="M34.388 50V41.6H35.396L39.872 48.332V41.6H40.88V50H39.872L35.396 43.268V50H34.388ZM45.0734 50.144C44.5134 50.144 44.0094 50.016 43.5614 49.76C43.1134 49.504 42.7574 49.144 42.4934 48.68C42.2374 48.208 42.1094 47.656 42.1094 47.024C42.1094 46.392 42.2414 45.844 42.5054 45.38C42.7694 44.908 43.1254 44.544 43.5734 44.288C44.0294 44.032 44.5374 43.904 45.0974 43.904C45.6574 43.904 46.1614 44.032 46.6094 44.288C47.0574 44.544 47.4094 44.908 47.6654 45.38C47.9294 45.844 48.0614 46.392 48.0614 47.024C48.0614 47.656 47.9294 48.208 47.6654 48.68C47.4014 49.144 47.0414 49.504 46.5854 49.76C46.1374 50.016 45.6334 50.144 45.0734 50.144ZM45.0734 49.28C45.4174 49.28 45.7374 49.196 46.0334 49.028C46.3294 48.86 46.5694 48.608 46.7534 48.272C46.9374 47.936 47.0294 47.52 47.0294 47.024C47.0294 46.528 46.9374 46.112 46.7534 45.776C46.5774 45.44 46.3414 45.188 46.0454 45.02C45.7494 44.852 45.4334 44.768 45.0974 44.768C44.7534 44.768 44.4334 44.852 44.1374 45.02C43.8414 45.188 43.6014 45.44 43.4174 45.776C43.2334 46.112 43.1414 46.528 43.1414 47.024C43.1414 47.52 43.2334 47.936 43.4174 48.272C43.6014 48.608 43.8374 48.86 44.1254 49.028C44.4214 49.196 44.7374 49.28 45.0734 49.28ZM51.923 50.144C51.331 50.144 50.811 50.008 50.363 49.736C49.923 49.464 49.579 49.092 49.331 48.62C49.091 48.148 48.971 47.612 48.971 47.012C48.971 46.412 49.095 45.88 49.343 45.416C49.591 44.944 49.935 44.576 50.375 44.312C50.815 44.04 51.335 43.904 51.935 43.904C52.423 43.904 52.855 44.004 53.231 44.204C53.607 44.404 53.899 44.684 54.107 45.044V41.36H55.115V50H54.203L54.107 49.016C53.915 49.304 53.639 49.564 53.279 49.796C52.919 50.028 52.467 50.144 51.923 50.144ZM52.031 49.268C52.431 49.268 52.783 49.176 53.087 48.992C53.399 48.8 53.639 48.536 53.807 48.2C53.983 47.864 54.071 47.472 54.071 47.024C54.071 46.576 53.983 46.184 53.807 45.848C53.639 45.512 53.399 45.252 53.087 45.068C52.783 44.876 52.431 44.78 52.031 44.78C51.639 44.78 51.287 44.876 50.975 45.068C50.671 45.252 50.431 45.512 50.255 45.848C50.087 46.184 50.003 46.576 50.003 47.024C50.003 47.472 50.087 47.864 50.255 48.2C50.431 48.536 50.671 48.8 50.975 48.992C51.287 49.176 51.639 49.268 52.031 49.268ZM59.1942 50.144C58.6262 50.144 58.1222 50.016 57.6822 49.76C57.2422 49.496 56.8942 49.132 56.6382 48.668C56.3902 48.204 56.2662 47.656 56.2662 47.024C56.2662 46.4 56.3902 45.856 56.6382 45.392C56.8862 44.92 57.2302 44.556 57.6702 44.3C58.1182 44.036 58.6342 43.904 59.2182 43.904C59.7942 43.904 60.2902 44.036 60.7062 44.3C61.1302 44.556 61.4542 44.896 61.6782 45.32C61.9022 45.744 62.0142 46.2 62.0142 46.688C62.0142 46.776 62.0102 46.864 62.0022 46.952C62.0022 47.04 62.0022 47.14 62.0022 47.252H57.2622C57.2862 47.708 57.3902 48.088 57.5742 48.392C57.7662 48.688 58.0022 48.912 58.2822 49.064C58.5702 49.216 58.8742 49.292 59.1942 49.292C59.6102 49.292 59.9582 49.196 60.2382 49.004C60.5182 48.812 60.7222 48.552 60.8502 48.224H61.8462C61.6862 48.776 61.3782 49.236 60.9222 49.604C60.4742 49.964 59.8982 50.144 59.1942 50.144ZM59.1942 44.756C58.7142 44.756 58.2862 44.904 57.9102 45.2C57.5422 45.488 57.3302 45.912 57.2742 46.472H61.0182C60.9942 45.936 60.8102 45.516 60.4662 45.212C60.1222 44.908 59.6982 44.756 59.1942 44.756ZM63.4582 50.06C63.2582 50.06 63.0902 49.996 62.9542 49.868C62.8262 49.732 62.7622 49.568 62.7622 49.376C62.7622 49.184 62.8262 49.024 62.9542 48.896C63.0902 48.76 63.2582 48.692 63.4582 48.692C63.6502 48.692 63.8102 48.76 63.9382 48.896C64.0742 49.024 64.1422 49.184 64.1422 49.376C64.1422 49.568 64.0742 49.732 63.9382 49.868C63.8102 49.996 63.6502 50.06 63.4582 50.06ZM65.8739 42.728C65.6819 42.728 65.5179 42.664 65.3819 42.536C65.2459 42.4 65.1779 42.232 65.1779 42.032C65.1779 41.84 65.2459 41.68 65.3819 41.552C65.5179 41.424 65.6819 41.36 65.8739 41.36C66.0659 41.36 66.2259 41.424 66.3539 41.552C66.4899 41.68 66.5579 41.84 66.5579 42.032C66.5579 42.232 66.4899 42.4 66.3539 42.536C66.2259 42.664 66.0659 42.728 65.8739 42.728ZM64.0499 52.64V51.776H64.5179C64.8139 51.776 65.0259 51.712 65.1539 51.584C65.2899 51.464 65.3579 51.256 65.3579 50.96V44.048H66.3659V50.984C66.3659 51.56 66.2219 51.98 65.9339 52.244C65.6459 52.508 65.2259 52.64 64.6739 52.64H64.0499ZM70.1602 50.144C69.4482 50.144 68.8562 49.964 68.3842 49.604C67.9122 49.244 67.6362 48.756 67.5562 48.14H68.5882C68.6522 48.452 68.8162 48.724 69.0802 48.956C69.3522 49.18 69.7162 49.292 70.1722 49.292C70.5962 49.292 70.9082 49.204 71.1082 49.028C71.3082 48.844 71.4082 48.628 71.4082 48.38C71.4082 48.02 71.2762 47.78 71.0122 47.66C70.7562 47.54 70.3922 47.432 69.9202 47.336C69.6002 47.272 69.2802 47.18 68.9602 47.06C68.6402 46.94 68.3722 46.772 68.1562 46.556C67.9402 46.332 67.8322 46.04 67.8322 45.68C67.8322 45.16 68.0242 44.736 68.4082 44.408C68.8002 44.072 69.3282 43.904 69.9922 43.904C70.6242 43.904 71.1402 44.064 71.5402 44.384C71.9482 44.696 72.1842 45.144 72.2482 45.728H71.2522C71.2122 45.424 71.0802 45.188 70.8562 45.02C70.6402 44.844 70.3482 44.756 69.9802 44.756C69.6202 44.756 69.3402 44.832 69.1402 44.984C68.9482 45.136 68.8522 45.336 68.8522 45.584C68.8522 45.824 68.9762 46.012 69.2242 46.148C69.4802 46.284 69.8242 46.4 70.2562 46.496C70.6242 46.576 70.9722 46.676 71.3002 46.796C71.6362 46.908 71.9082 47.08 72.1162 47.312C72.3322 47.536 72.4402 47.864 72.4402 48.296C72.4482 48.832 72.2442 49.276 71.8282 49.628C71.4202 49.972 70.8642 50.144 70.1602 50.144Z" fill="#CDCAD5"/>
</svg>
