<svg width="67" height="58" viewBox="0 0 67 58" fill="none" xmlns="http://www.w3.org/2000/svg">
<path d="M33.4564 32C24.8586 32 17.5674 24.7381 17.5004 16.0859C17.4855 13.9986 17.8849 11.9292 18.6757 9.99757C19.4665 8.06591 20.6328 6.31043 22.1071 4.83288C23.5911 3.31299 25.3623 2.10308 27.3178 1.27343C29.2733 0.443783 31.3741 0.0109282 33.4983 6.2717e-06C35.5841 -0.00185153 37.6496 0.409048 39.5759 1.20903C41.5022 2.00901 43.2511 3.18226 44.722 4.66118C46.2174 6.11888 47.4095 7.85813 48.2296 9.77868C49.0497 11.6992 49.4816 13.7631 49.5004 15.8513C49.5194 20.0995 47.8563 24.1826 44.8744 27.2084C41.8925 30.2342 37.8343 31.9569 33.5863 32H33.4564ZM33.5067 0.837593C31.4938 0.849386 29.5032 1.26083 27.6506 2.04804C25.7979 2.83525 24.1201 3.98255 22.7144 5.42338C21.3161 6.82126 20.2093 8.48281 19.4581 10.3117C18.7068 12.1406 18.3261 14.1004 18.338 16.0775C18.4008 24.2775 25.3109 31.154 33.4522 31.154H33.5611C37.5892 31.1175 41.4389 29.4878 44.2688 26.621C47.0987 23.7542 48.6785 19.8837 48.6628 15.8555C48.644 13.8772 48.234 11.9221 47.4563 10.1029C46.6786 8.28374 45.5486 6.63642 44.1315 5.25586C42.7409 3.85302 41.0858 2.74013 39.262 1.9817C37.4381 1.22327 35.4819 0.834385 33.5067 0.837593Z" fill="white"/>
<path d="M21.0898 20.6795V11.332H23.3639V12.1696H22.1578V19.8587H23.3639V20.6962L21.0898 20.6795Z" fill="white"/>
<path d="M28.8084 15.9144C28.8084 17.6189 27.774 18.5905 26.371 18.5905C24.9681 18.5905 24.0342 17.4975 24.0342 16.0024C24.0342 14.4403 25.0142 13.3389 26.4464 13.3389C27.8787 13.3389 28.8084 14.4864 28.8084 15.9144ZM25.0142 15.9898C25.0142 17.0242 25.5335 17.8451 26.4255 17.8451C27.3175 17.8451 27.8284 17.0075 27.8284 15.9521C27.8284 14.9931 27.3552 14.0885 26.4255 14.0885C25.4958 14.0885 25.0058 14.9638 25.0058 16.0108L25.0142 15.9898Z" fill="white"/>
<path d="M29.5957 13.5151C30.0411 13.4382 30.4923 13.4004 30.9442 13.402C31.4519 13.3524 31.9622 13.4654 32.4016 13.7245C32.5663 13.8215 32.7021 13.9608 32.7949 14.128C32.8877 14.2951 32.9341 14.484 32.9293 14.6752C32.9233 14.9235 32.8391 15.1636 32.6887 15.3614C32.5383 15.5591 32.3294 15.7044 32.0917 15.7766C32.3814 15.8355 32.6418 15.9928 32.8288 16.2218C33.0158 16.4508 33.1179 16.7373 33.1178 17.033C33.1209 17.2332 33.0784 17.4316 32.9935 17.613C32.9086 17.7944 32.7836 17.9541 32.6278 18.08C32.2676 18.3982 31.6687 18.5532 30.7432 18.5532C30.3625 18.5551 29.982 18.5327 29.6041 18.4862L29.5957 13.5151ZM30.517 15.5211H30.9903C31.631 15.5211 31.9912 15.2196 31.9912 14.7882C31.9912 14.3569 31.631 14.093 31.0405 14.093C30.8638 14.087 30.6869 14.0996 30.5129 14.1307L30.517 15.5211ZM30.517 17.858C30.6798 17.8748 30.8434 17.8818 31.007 17.8789C31.6017 17.8789 32.1294 17.6528 32.1294 17.0413C32.1294 16.4299 31.6185 16.2038 30.9777 16.2038H30.517V17.858Z" fill="white"/>
<path d="M34.9468 13.4482H35.8724V16.7525C35.8724 18.1555 35.1939 18.6245 34.1972 18.6245C33.9306 18.6223 33.6662 18.5771 33.4141 18.4905L33.5271 17.7451C33.713 17.8031 33.9062 17.8341 34.1009 17.8372C34.6286 17.8372 34.9385 17.5943 34.9385 16.7148L34.9468 13.4482Z" fill="white"/>
<path d="M38.5075 16.1992V16.84H36.5811V16.1992H38.5075Z" fill="white"/>
<path d="M43.0054 18.3765C42.589 18.5426 42.1425 18.6196 41.6945 18.6027C40.0822 18.6027 39.1022 17.5934 39.1022 16.0481C39.0831 15.688 39.1405 15.328 39.2706 14.9917C39.4006 14.6554 39.6004 14.3504 39.8567 14.0969C40.113 13.8433 40.4202 13.6468 40.7578 13.5205C41.0955 13.3941 41.4562 13.3406 41.816 13.3636C42.2463 13.3458 42.6753 13.423 43.0724 13.5897L42.8672 14.3268C42.5522 14.1927 42.2127 14.1257 41.8704 14.13C40.836 14.13 40.0906 14.7791 40.0906 16.002C40.0906 17.116 40.7481 17.8363 41.862 17.8363C42.2077 17.8413 42.5508 17.7772 42.8713 17.6478L43.0054 18.3765Z" fill="white"/>
<path d="M45.9108 11.3076V20.6802H43.6367V19.8426H44.8428V12.1452H43.6367V11.3076H45.9108Z" fill="white"/>
<path d="M4.704 53.144C3.88 53.144 3.156 52.964 2.532 52.604C1.916 52.236 1.432 51.724 1.08 51.068C0.736 50.412 0.564 49.656 0.564 48.8C0.564 47.944 0.736 47.192 1.08 46.544C1.432 45.888 1.916 45.376 2.532 45.008C3.156 44.64 3.88 44.456 4.704 44.456C5.536 44.456 6.26 44.64 6.876 45.008C7.5 45.376 7.984 45.888 8.328 46.544C8.672 47.192 8.844 47.944 8.844 48.8C8.844 49.656 8.672 50.412 8.328 51.068C7.984 51.724 7.5 52.236 6.876 52.604C6.26 52.964 5.536 53.144 4.704 53.144ZM4.704 52.256C5.32 52.256 5.86 52.12 6.324 51.848C6.796 51.568 7.16 51.172 7.416 50.66C7.68 50.14 7.812 49.52 7.812 48.8C7.812 48.08 7.68 47.464 7.416 46.952C7.16 46.44 6.796 46.048 6.324 45.776C5.86 45.496 5.32 45.356 4.704 45.356C4.088 45.356 3.544 45.496 3.072 45.776C2.608 46.048 2.244 46.44 1.98 46.952C1.724 47.464 1.596 48.08 1.596 48.8C1.596 49.52 1.724 50.14 1.98 50.66C2.244 51.172 2.608 51.568 3.072 51.848C3.544 52.12 4.088 52.256 4.704 52.256ZM13.1782 53.144C12.6902 53.144 12.2542 53.044 11.8702 52.844C11.4942 52.644 11.2062 52.364 11.0062 52.004L10.9102 53H9.99816V44.36H11.0062V48.032C11.1982 47.744 11.4702 47.484 11.8222 47.252C12.1822 47.02 12.6382 46.904 13.1902 46.904C13.7822 46.904 14.2982 47.04 14.7382 47.312C15.1782 47.584 15.5182 47.956 15.7582 48.428C16.0062 48.9 16.1302 49.436 16.1302 50.036C16.1302 50.636 16.0062 51.172 15.7582 51.644C15.5182 52.108 15.1742 52.476 14.7262 52.748C14.2862 53.012 13.7702 53.144 13.1782 53.144ZM13.0702 52.268C13.4702 52.268 13.8222 52.176 14.1262 51.992C14.4302 51.8 14.6702 51.536 14.8462 51.2C15.0222 50.864 15.1102 50.472 15.1102 50.024C15.1102 49.576 15.0222 49.184 14.8462 48.848C14.6702 48.512 14.4302 48.252 14.1262 48.068C13.8222 47.876 13.4702 47.78 13.0702 47.78C12.6702 47.78 12.3182 47.876 12.0142 48.068C11.7102 48.252 11.4702 48.512 11.2942 48.848C11.1182 49.184 11.0302 49.576 11.0302 50.024C11.0302 50.472 11.1182 50.864 11.2942 51.2C11.4702 51.536 11.7102 51.8 12.0142 51.992C12.3182 52.176 12.6702 52.268 13.0702 52.268ZM17.9533 45.728C17.7613 45.728 17.5973 45.664 17.4613 45.536C17.3253 45.4 17.2573 45.232 17.2573 45.032C17.2573 44.84 17.3253 44.68 17.4613 44.552C17.5973 44.424 17.7613 44.36 17.9533 44.36C18.1453 44.36 18.3053 44.424 18.4333 44.552C18.5693 44.68 18.6373 44.84 18.6373 45.032C18.6373 45.232 18.5693 45.4 18.4333 45.536C18.3053 45.664 18.1453 45.728 17.9533 45.728ZM16.1293 55.64V54.776H16.5973C16.8933 54.776 17.1053 54.712 17.2333 54.584C17.3693 54.464 17.4373 54.256 17.4373 53.96V47.048H18.4453V53.984C18.4453 54.56 18.3013 54.98 18.0133 55.244C17.7253 55.508 17.3053 55.64 16.7533 55.64H16.1293ZM22.6356 53.144C22.0676 53.144 21.5636 53.016 21.1236 52.76C20.6836 52.496 20.3356 52.132 20.0796 51.668C19.8316 51.204 19.7076 50.656 19.7076 50.024C19.7076 49.4 19.8316 48.856 20.0796 48.392C20.3276 47.92 20.6716 47.556 21.1116 47.3C21.5596 47.036 22.0756 46.904 22.6596 46.904C23.2356 46.904 23.7316 47.036 24.1476 47.3C24.5716 47.556 24.8956 47.896 25.1196 48.32C25.3436 48.744 25.4556 49.2 25.4556 49.688C25.4556 49.776 25.4516 49.864 25.4436 49.952C25.4436 50.04 25.4436 50.14 25.4436 50.252H20.7036C20.7276 50.708 20.8316 51.088 21.0156 51.392C21.2076 51.688 21.4436 51.912 21.7236 52.064C22.0116 52.216 22.3156 52.292 22.6356 52.292C23.0516 52.292 23.3996 52.196 23.6796 52.004C23.9596 51.812 24.1636 51.552 24.2916 51.224H25.2876C25.1276 51.776 24.8196 52.236 24.3636 52.604C23.9156 52.964 23.3396 53.144 22.6356 53.144ZM22.6356 47.756C22.1556 47.756 21.7276 47.904 21.3516 48.2C20.9836 48.488 20.7716 48.912 20.7156 49.472H24.4596C24.4356 48.936 24.2516 48.516 23.9076 48.212C23.5636 47.908 23.1396 47.756 22.6356 47.756ZM29.2876 53.144C28.7196 53.144 28.2076 53.016 27.7516 52.76C27.3036 52.496 26.9476 52.132 26.6836 51.668C26.4276 51.196 26.2996 50.648 26.2996 50.024C26.2996 49.4 26.4276 48.856 26.6836 48.392C26.9476 47.92 27.3036 47.556 27.7516 47.3C28.2076 47.036 28.7196 46.904 29.2876 46.904C29.9916 46.904 30.5836 47.088 31.0636 47.456C31.5516 47.824 31.8596 48.316 31.9876 48.932H30.9556C30.8756 48.564 30.6796 48.28 30.3676 48.08C30.0556 47.872 29.6916 47.768 29.2756 47.768C28.9396 47.768 28.6236 47.852 28.3276 48.02C28.0316 48.188 27.7916 48.44 27.6076 48.776C27.4236 49.112 27.3316 49.528 27.3316 50.024C27.3316 50.52 27.4236 50.936 27.6076 51.272C27.7916 51.608 28.0316 51.864 28.3276 52.04C28.6236 52.208 28.9396 52.292 29.2756 52.292C29.6916 52.292 30.0556 52.192 30.3676 51.992C30.6796 51.784 30.8756 51.492 30.9556 51.116H31.9876C31.8676 51.716 31.5636 52.204 31.0756 52.58C30.5876 52.956 29.9916 53.144 29.2876 53.144ZM35.3433 53C34.7993 53 34.3713 52.868 34.0593 52.604C33.7473 52.34 33.5913 51.864 33.5913 51.176V47.9H32.5593V47.048H33.5913L33.7233 45.62H34.5993V47.048H36.3513V47.9H34.5993V51.176C34.5993 51.552 34.6753 51.808 34.8273 51.944C34.9793 52.072 35.2473 52.136 35.6313 52.136H36.2553V53H35.3433ZM38.0039 45.728C37.8039 45.728 37.6359 45.664 37.4999 45.536C37.3719 45.4 37.3079 45.232 37.3079 45.032C37.3079 44.84 37.3719 44.68 37.4999 44.552C37.6359 44.424 37.8039 44.36 38.0039 44.36C38.1959 44.36 38.3599 44.424 38.4959 44.552C38.6319 44.68 38.6999 44.84 38.6999 45.032C38.6999 45.232 38.6319 45.4 38.4959 45.536C38.3599 45.664 38.1959 45.728 38.0039 45.728ZM37.4999 53V47.048H38.5079V53H37.4999ZM41.739 53L39.483 47.048H40.539L42.327 52.028L44.127 47.048H45.159L42.903 53H41.739ZM48.4121 53.144C47.8441 53.144 47.3401 53.016 46.9001 52.76C46.4601 52.496 46.1121 52.132 45.8561 51.668C45.6081 51.204 45.4841 50.656 45.4841 50.024C45.4841 49.4 45.6081 48.856 45.8561 48.392C46.1041 47.92 46.4481 47.556 46.8881 47.3C47.3361 47.036 47.8521 46.904 48.4361 46.904C49.0121 46.904 49.5081 47.036 49.9241 47.3C50.3481 47.556 50.6721 47.896 50.8961 48.32C51.1201 48.744 51.2321 49.2 51.2321 49.688C51.2321 49.776 51.2281 49.864 51.2201 49.952C51.2201 50.04 51.2201 50.14 51.2201 50.252H46.4801C46.5041 50.708 46.6081 51.088 46.7921 51.392C46.9841 51.688 47.2201 51.912 47.5001 52.064C47.7881 52.216 48.0921 52.292 48.4121 52.292C48.8281 52.292 49.1761 52.196 49.4561 52.004C49.7361 51.812 49.9401 51.552 50.0681 51.224H51.0641C50.9041 51.776 50.5961 52.236 50.1401 52.604C49.6921 52.964 49.1161 53.144 48.4121 53.144ZM48.4121 47.756C47.9321 47.756 47.5041 47.904 47.1281 48.2C46.7601 48.488 46.5481 48.912 46.4921 49.472H50.2361C50.2121 48.936 50.0281 48.516 49.6841 48.212C49.3401 47.908 48.9161 47.756 48.4121 47.756ZM52.2082 49.94V49.088H56.9602V49.94H52.2082ZM61.9845 53.144C61.1605 53.144 60.4485 52.964 59.8485 52.604C59.2565 52.236 58.7965 51.728 58.4685 51.08C58.1405 50.424 57.9765 49.664 57.9765 48.8C57.9765 47.944 58.1405 47.192 58.4685 46.544C58.7965 45.888 59.2565 45.376 59.8485 45.008C60.4485 44.64 61.1605 44.456 61.9845 44.456C62.9445 44.456 63.7245 44.688 64.3245 45.152C64.9325 45.608 65.3205 46.248 65.4885 47.072H64.3725C64.2445 46.552 63.9805 46.136 63.5805 45.824C63.1885 45.504 62.6565 45.344 61.9845 45.344C61.3845 45.344 60.8605 45.484 60.4125 45.764C59.9645 46.036 59.6165 46.432 59.3685 46.952C59.1285 47.464 59.0085 48.08 59.0085 48.8C59.0085 49.52 59.1285 50.14 59.3685 50.66C59.6165 51.172 59.9645 51.568 60.4125 51.848C60.8605 52.12 61.3845 52.256 61.9845 52.256C62.6565 52.256 63.1885 52.104 63.5805 51.8C63.9805 51.488 64.2445 51.076 64.3725 50.564H65.4885C65.3205 51.372 64.9325 52.004 64.3245 52.46C63.7245 52.916 62.9445 53.144 61.9845 53.144Z" fill="#CDCAD5"/>
</svg>
