<svg width="67" height="58" viewBox="0 0 67 58" fill="none" xmlns="http://www.w3.org/2000/svg">
<path fill-rule="evenodd" clip-rule="evenodd" d="M25.6587 0.0914619C24.7073 0.288821 23.7389 1.13525 23.3237 2.13252C22.7409 3.53264 22.6424 6.13243 23.0778 8.62998C23.183 9.23421 23.2693 9.78932 23.2694 9.8635C23.2694 9.93769 22.7745 10.1641 22.1694 10.3667C20.0065 11.0907 17.7294 12.5317 16.8443 13.7365C15.9189 14.9964 15.762 16.1131 16.3354 17.3587C17.1475 19.123 19.4353 20.7926 22.4348 21.8096L23.2976 22.1022L23.2181 22.5716C22.8195 24.9243 22.7464 25.7272 22.8109 27.0476C22.9125 29.1275 23.2245 30.0592 24.1318 30.9918C24.7117 31.5878 24.9702 31.7555 25.5172 31.8904C27.303 32.3308 29.9431 31.2424 32.5867 28.9762L33.5818 28.123L34.2416 28.7342C36.4432 30.774 39.2352 32.1419 40.8832 31.9882C42.6628 31.8224 43.7374 30.5347 44.1555 28.0667C44.3406 26.9744 44.2395 24.3 43.9635 22.9894C43.8527 22.4633 43.7772 22.0205 43.7957 22.0053C43.8143 21.9899 44.225 21.8437 44.7086 21.6805C46.6932 21.0101 48.3009 20.0919 49.4876 18.9509C52.2581 16.2872 51.1766 13.3475 46.6183 11.1504C45.9835 10.8445 45.0645 10.4641 44.576 10.3053L43.6877 10.0164L43.9295 8.77383C44.2249 7.25519 44.2767 4.52357 44.0315 3.39551C43.4528 0.733815 41.8169 -0.441032 39.5317 0.16371C37.8034 0.621112 36.02 1.67615 34.2063 3.31396L33.5112 3.94158L33.0116 3.4896C31.1389 1.79557 29.194 0.64205 27.5117 0.227429C26.408 -0.0445053 26.3389 -0.0495457 25.6587 0.0914619ZM28.1108 2.03119C29.1588 2.44555 30.4353 3.27079 31.6001 4.28679L32.4488 5.02698L31.5844 6.08525C31.1091 6.66738 30.4442 7.5195 30.1071 7.97897L29.4941 8.81428L27.6079 9.11233C26.5704 9.27621 25.5179 9.44475 25.2689 9.48688C24.7252 9.5789 24.7451 9.61884 24.4594 7.8629C24.1656 6.05695 24.2455 3.92141 24.6418 2.98813C25.2785 1.489 26.1392 1.25158 28.1108 2.03119ZM41.576 1.83939C42.3244 2.34358 42.8576 4.47239 42.7101 6.36817C42.6659 6.93685 42.5419 7.9009 42.4346 8.51043L42.2396 9.61871L41.0853 9.38853C40.4505 9.26186 39.3936 9.09035 38.7366 9.00725L37.542 8.85616L36.7875 7.80746C36.3725 7.2305 35.7067 6.3674 35.3079 5.88944L34.5827 5.02026L35.4337 4.29287C38.1664 1.95674 40.416 1.05822 41.576 1.83939ZM34.5743 7.43122C35.0654 8.05147 35.4671 8.5894 35.4671 8.62675C35.4671 8.6641 34.59 8.6946 33.518 8.6946C32.446 8.6946 31.5831 8.65298 31.6004 8.60206C31.6855 8.35119 33.4101 6.30355 33.5361 6.30355C33.6161 6.30355 34.0831 6.81097 34.5743 7.43122ZM35.312 10.266L36.7286 10.3499L37.5655 11.7195C38.0259 12.4727 38.7365 13.7422 39.1446 14.5404L39.8867 15.9918L39.1767 17.3966C38.7861 18.1691 38.0808 19.4353 37.6093 20.2103L36.7519 21.6192L35.9524 21.701C34.8556 21.8132 32.19 21.8289 31.1615 21.7289L30.3138 21.6467L29.5642 20.4572C28.6584 19.0201 27.1682 16.2585 27.168 16.0164C27.1676 15.7675 28.6913 12.9217 29.579 11.5133L30.3304 10.3212L31.2326 10.2767C33.068 10.1864 33.929 10.1842 35.312 10.266ZM28.2995 10.6231C28.2995 10.6529 28.0245 11.1331 27.6885 11.69C27.3523 12.2471 26.9259 13.0099 26.7408 13.3853C26.5557 13.7607 26.356 14.0373 26.2972 13.9999C26.1539 13.9089 25.2282 11.2267 25.3107 11.1419C25.4726 10.9754 28.2995 10.4847 28.2995 10.6231ZM40.301 10.8199C41.0466 10.9581 41.6875 11.1028 41.7253 11.1416C41.763 11.1804 41.5518 11.8832 41.2561 12.7034L40.7185 14.1948L39.7275 12.4239C39.1825 11.4499 38.7366 10.6341 38.7366 10.6108C38.7366 10.5387 38.9053 10.5612 40.301 10.8199ZM24.1503 12.6815C24.3526 13.2929 24.7246 14.2818 24.9769 14.8789L25.4357 15.9646L24.8081 17.5641C24.4629 18.4438 24.0822 19.4748 23.9622 19.8553C23.7557 20.5094 23.7245 20.5431 23.3894 20.4742C22.762 20.3452 21.0753 19.6291 20.3705 19.1924C18.4765 18.0189 17.4851 16.9298 17.4851 16.0225C17.4851 14.6914 19.7409 12.8554 22.5821 11.8741C23.1981 11.6613 23.7202 11.5057 23.7422 11.5285C23.7642 11.5511 23.9479 12.07 24.1503 12.6815ZM44.3069 11.8521C47.7114 13.056 49.8887 15.0057 49.4287 16.4385C49.1393 17.3399 47.8059 18.5655 46.2186 19.3895C45.6059 19.7075 43.3709 20.5616 43.3352 20.4913C43.3254 20.4719 43.2129 20.1361 43.0854 19.7451C42.9577 19.3542 42.57 18.343 42.2238 17.4979L41.5945 15.9615L42.0016 14.9776C42.332 14.1796 42.8957 12.6693 43.2012 11.7642C43.2755 11.544 43.4818 11.5604 44.3069 11.8521ZM32.4175 12.9503C31.1654 13.4095 30.3932 14.5705 30.3912 15.997C30.3898 16.9543 30.6159 17.5474 31.2289 18.1954C32.1465 19.1651 33.5893 19.4816 34.7126 18.9595C36.2338 18.2526 36.9754 16.6918 36.5332 15.1277C36.2702 14.1967 35.305 13.1316 34.524 12.91C33.8569 12.7207 32.9984 12.7372 32.4175 12.9503ZM41.3813 19.5302C41.728 20.4745 41.8215 20.8674 41.7139 20.9292C41.4941 21.0556 38.8729 21.4792 38.7964 21.4007C38.7606 21.3638 39.0295 20.8144 39.3941 20.1798C39.7587 19.5451 40.1973 18.7536 40.3688 18.4206C40.735 17.7099 40.6983 17.6697 41.3813 19.5302ZM26.9233 18.9374C27.2164 19.4882 27.6487 20.2501 27.8841 20.6302C28.1195 21.0105 28.2952 21.3641 28.2744 21.416C28.2348 21.5149 25.4123 21.0858 25.2926 20.9628C25.1891 20.8564 26.2005 17.9357 26.3407 17.9357C26.3681 17.9357 26.6303 18.3865 26.9233 18.9374ZM26.3182 22.7753C26.9229 22.8825 27.8739 23.0093 28.4315 23.0571L29.4453 23.1439L30.0349 23.9325C30.3592 24.3662 31.04 25.2345 31.5477 25.8619C32.6263 27.1949 32.6656 27.0186 31.0031 28.3095C29.8267 29.223 28.0311 30.1522 27.0255 30.3678C26.4115 30.4993 26.2386 30.4885 25.7226 30.2859C25.1807 30.0732 25.0934 29.9768 24.7402 29.2011C24.3969 28.447 24.3463 28.184 24.2985 26.9006C24.2613 25.9004 24.3111 25.0423 24.4594 24.1311C24.7195 22.5321 24.7531 22.4342 25.0134 22.5161C25.1263 22.5516 25.7135 22.6682 26.3182 22.7753ZM42.481 23.2994C42.7693 24.6923 42.8217 27.0759 42.5874 28.1578C42.0522 30.6306 40.8918 31.0506 38.3016 29.7089C37.0961 29.0845 34.9031 27.4359 34.7569 27.0443C34.7165 26.936 34.9449 26.5628 35.3071 26.145C35.6476 25.7524 36.2898 24.9181 36.7342 24.2913L37.542 23.1514L38.9252 22.991C39.686 22.9028 40.648 22.7519 41.0629 22.6559C42.2447 22.3823 42.2959 22.4056 42.481 23.2994ZM35.4818 23.461C35.3209 23.7647 33.7127 25.7454 33.5893 25.7919C33.5356 25.8122 33.0558 25.2888 32.5231 24.6287L31.5546 23.4287L33.5423 23.359C34.6356 23.3207 35.5461 23.2772 35.5658 23.2621C35.5856 23.2471 35.5477 23.3365 35.4818 23.461Z" fill="white"/>
<path d="M0.888 53V44.6H3.6C4.256 44.6 4.792 44.708 5.208 44.924C5.624 45.14 5.932 45.436 6.132 45.812C6.332 46.188 6.432 46.604 6.432 47.06C6.432 47.588 6.288 48.064 6 48.488C5.72 48.912 5.28 49.212 4.68 49.388L6.516 53H5.328L3.624 49.532H3.552H1.896V53H0.888ZM1.896 48.74H3.528C4.176 48.74 4.648 48.584 4.944 48.272C5.24 47.96 5.388 47.56 5.388 47.072C5.388 46.576 5.24 46.184 4.944 45.896C4.656 45.6 4.18 45.452 3.516 45.452H1.896V48.74ZM10.014 53.144C9.446 53.144 8.942 53.016 8.502 52.76C8.062 52.496 7.714 52.132 7.458 51.668C7.21 51.204 7.086 50.656 7.086 50.024C7.086 49.4 7.21 48.856 7.458 48.392C7.706 47.92 8.05 47.556 8.49 47.3C8.938 47.036 9.454 46.904 10.038 46.904C10.614 46.904 11.11 47.036 11.526 47.3C11.95 47.556 12.274 47.896 12.498 48.32C12.722 48.744 12.834 49.2 12.834 49.688C12.834 49.776 12.83 49.864 12.822 49.952C12.822 50.04 12.822 50.14 12.822 50.252H8.082C8.106 50.708 8.21 51.088 8.394 51.392C8.586 51.688 8.822 51.912 9.102 52.064C9.39 52.216 9.694 52.292 10.014 52.292C10.43 52.292 10.778 52.196 11.058 52.004C11.338 51.812 11.542 51.552 11.67 51.224H12.666C12.506 51.776 12.198 52.236 11.742 52.604C11.294 52.964 10.718 53.144 10.014 53.144ZM10.014 47.756C9.534 47.756 9.106 47.904 8.73 48.2C8.362 48.488 8.15 48.912 8.094 49.472H11.838C11.814 48.936 11.63 48.516 11.286 48.212C10.942 47.908 10.518 47.756 10.014 47.756ZM15.91 53.144C15.414 53.144 15.002 53.06 14.674 52.892C14.346 52.724 14.102 52.5 13.942 52.22C13.782 51.94 13.702 51.636 13.702 51.308C13.702 50.7 13.934 50.232 14.398 49.904C14.862 49.576 15.494 49.412 16.294 49.412H17.902V49.34C17.902 48.82 17.766 48.428 17.494 48.164C17.222 47.892 16.858 47.756 16.402 47.756C16.01 47.756 15.67 47.856 15.382 48.056C15.102 48.248 14.926 48.532 14.854 48.908H13.822C13.862 48.476 14.006 48.112 14.254 47.816C14.51 47.52 14.826 47.296 15.202 47.144C15.578 46.984 15.978 46.904 16.402 46.904C17.234 46.904 17.858 47.128 18.274 47.576C18.698 48.016 18.91 48.604 18.91 49.34V53H18.01L17.95 51.932C17.782 52.268 17.534 52.556 17.206 52.796C16.886 53.028 16.454 53.144 15.91 53.144ZM16.066 52.292C16.45 52.292 16.778 52.192 17.05 51.992C17.33 51.792 17.542 51.532 17.686 51.212C17.83 50.892 17.902 50.556 17.902 50.204V50.192H16.378C15.786 50.192 15.366 50.296 15.118 50.504C14.878 50.704 14.758 50.956 14.758 51.26C14.758 51.572 14.87 51.824 15.094 52.016C15.326 52.2 15.65 52.292 16.066 52.292ZM22.9182 53.144C22.3502 53.144 21.8382 53.016 21.3822 52.76C20.9342 52.496 20.5782 52.132 20.3142 51.668C20.0582 51.196 19.9302 50.648 19.9302 50.024C19.9302 49.4 20.0582 48.856 20.3142 48.392C20.5782 47.92 20.9342 47.556 21.3822 47.3C21.8382 47.036 22.3502 46.904 22.9182 46.904C23.6222 46.904 24.2142 47.088 24.6942 47.456C25.1822 47.824 25.4902 48.316 25.6182 48.932H24.5862C24.5062 48.564 24.3102 48.28 23.9982 48.08C23.6862 47.872 23.3222 47.768 22.9062 47.768C22.5702 47.768 22.2542 47.852 21.9582 48.02C21.6622 48.188 21.4222 48.44 21.2382 48.776C21.0542 49.112 20.9622 49.528 20.9622 50.024C20.9622 50.52 21.0542 50.936 21.2382 51.272C21.4222 51.608 21.6622 51.864 21.9582 52.04C22.2542 52.208 22.5702 52.292 22.9062 52.292C23.3222 52.292 23.6862 52.192 23.9982 51.992C24.3102 51.784 24.5062 51.492 24.5862 51.116H25.6182C25.4982 51.716 25.1942 52.204 24.7062 52.58C24.2182 52.956 23.6222 53.144 22.9182 53.144ZM28.9739 53C28.4299 53 28.0019 52.868 27.6899 52.604C27.3779 52.34 27.2219 51.864 27.2219 51.176V47.9H26.1899V47.048H27.2219L27.3539 45.62H28.2299V47.048H29.9819V47.9H28.2299V51.176C28.2299 51.552 28.3059 51.808 28.4579 51.944C28.6099 52.072 28.8779 52.136 29.2619 52.136H29.8859V53H28.9739ZM34.0183 53V44.6H35.0263L39.5023 51.332V44.6H40.5103V53H39.5023L35.0263 46.268V53H34.0183ZM43.9717 53.144C43.4757 53.144 43.0637 53.06 42.7357 52.892C42.4077 52.724 42.1637 52.5 42.0037 52.22C41.8437 51.94 41.7637 51.636 41.7637 51.308C41.7637 50.7 41.9957 50.232 42.4597 49.904C42.9237 49.576 43.5557 49.412 44.3557 49.412H45.9637V49.34C45.9637 48.82 45.8277 48.428 45.5558 48.164C45.2837 47.892 44.9197 47.756 44.4637 47.756C44.0717 47.756 43.7317 47.856 43.4437 48.056C43.1637 48.248 42.9877 48.532 42.9157 48.908H41.8837C41.9237 48.476 42.0677 48.112 42.3157 47.816C42.5717 47.52 42.8877 47.296 43.2637 47.144C43.6397 46.984 44.0397 46.904 44.4637 46.904C45.2957 46.904 45.9197 47.128 46.3357 47.576C46.7598 48.016 46.9718 48.604 46.9718 49.34V53H46.0717L46.0117 51.932C45.8437 52.268 45.5957 52.556 45.2677 52.796C44.9477 53.028 44.5157 53.144 43.9717 53.144ZM44.1277 52.292C44.5117 52.292 44.8397 52.192 45.1118 51.992C45.3917 51.792 45.6037 51.532 45.7478 51.212C45.8917 50.892 45.9637 50.556 45.9637 50.204V50.192H44.4397C43.8477 50.192 43.4277 50.296 43.1797 50.504C42.9397 50.704 42.8197 50.956 42.8197 51.26C42.8197 51.572 42.9317 51.824 43.1557 52.016C43.3877 52.2 43.7117 52.292 44.1277 52.292ZM50.4319 53C49.8879 53 49.4599 52.868 49.1479 52.604C48.8359 52.34 48.6799 51.864 48.6799 51.176V47.9H47.6479V47.048H48.6799L48.8119 45.62H49.6879V47.048H51.4399V47.9H49.6879V51.176C49.6879 51.552 49.7639 51.808 49.9159 51.944C50.0679 52.072 50.3359 52.136 50.7199 52.136H51.3439V53H50.4319ZM53.0925 45.728C52.8925 45.728 52.7245 45.664 52.5885 45.536C52.4605 45.4 52.3965 45.232 52.3965 45.032C52.3965 44.84 52.4605 44.68 52.5885 44.552C52.7245 44.424 52.8925 44.36 53.0925 44.36C53.2845 44.36 53.4485 44.424 53.5845 44.552C53.7205 44.68 53.7885 44.84 53.7885 45.032C53.7885 45.232 53.7205 45.4 53.5845 45.536C53.4485 45.664 53.2845 45.728 53.0925 45.728ZM52.5885 53V47.048H53.5965V53H52.5885ZM56.8276 53L54.5716 47.048H55.6276L57.4156 52.028L59.2156 47.048H60.2476L57.9916 53H56.8276ZM63.5007 53.144C62.9327 53.144 62.4287 53.016 61.9887 52.76C61.5487 52.496 61.2007 52.132 60.9447 51.668C60.6967 51.204 60.5727 50.656 60.5727 50.024C60.5727 49.4 60.6967 48.856 60.9447 48.392C61.1927 47.92 61.5367 47.556 61.9767 47.3C62.4247 47.036 62.9407 46.904 63.5247 46.904C64.1007 46.904 64.5967 47.036 65.0127 47.3C65.4367 47.556 65.7607 47.896 65.9847 48.32C66.2087 48.744 66.3207 49.2 66.3207 49.688C66.3207 49.776 66.3167 49.864 66.3087 49.952C66.3087 50.04 66.3087 50.14 66.3087 50.252H61.5687C61.5927 50.708 61.6967 51.088 61.8807 51.392C62.0727 51.688 62.3087 51.912 62.5887 52.064C62.8767 52.216 63.1807 52.292 63.5007 52.292C63.9167 52.292 64.2647 52.196 64.5447 52.004C64.8247 51.812 65.0287 51.552 65.1567 51.224H66.1527C65.9927 51.776 65.6847 52.236 65.2287 52.604C64.7807 52.964 64.2047 53.144 63.5007 53.144ZM63.5007 47.756C63.0207 47.756 62.5927 47.904 62.2167 48.2C61.8487 48.488 61.6367 48.912 61.5807 49.472H65.3247C65.3007 48.936 65.1167 48.516 64.7727 48.212C64.4287 47.908 64.0047 47.756 63.5007 47.756Z" fill="#CDCAD5"/>
</svg>
