<svg width="48" height="58" viewBox="0 0 48 58" fill="none" xmlns="http://www.w3.org/2000/svg">
<g clip-path="url(#clip0_4096_1663)">
<path d="M24 31.9745C32.8366 31.9745 40 24.8398 40 16.0385C40 7.23733 32.8366 0.102539 24 0.102539C15.1634 0.102539 8 7.23733 8 16.0385C8 24.8398 15.1634 31.9745 24 31.9745Z" fill="white"/>
<path d="M30.9635 5.99097C29.3403 6.04737 27.9235 6.93842 26.8689 8.17097C25.7011 9.52241 24.9243 11.1254 24.3645 12.7615C23.3633 11.9442 22.5908 10.8861 20.9844 10.4247C19.7428 10.0696 18.4386 10.2163 17.2394 11.1062C16.6713 11.5289 16.2799 12.1678 16.0938 12.7684C15.6119 14.3292 16.6004 15.7183 17.0494 16.217L18.031 17.2648C18.2334 17.4702 18.7208 18.0062 18.4825 18.7746C18.225 19.61 17.2138 20.151 16.1765 19.8323C15.7133 19.6916 15.0478 19.3478 15.1968 18.8638C15.2584 18.6658 15.4006 18.5177 15.4769 18.3465C15.5469 18.1994 15.5803 18.0891 15.6015 18.0244C15.791 17.4081 15.5321 16.6063 14.8694 16.4028C14.2511 16.214 13.6185 16.3636 13.3733 17.1565C13.0951 18.0573 13.5279 19.6921 15.8461 20.404C18.5623 21.2351 20.8599 19.7622 21.1858 17.841C21.391 16.6377 20.8455 15.7438 19.8461 14.594L19.0319 13.6971C18.5386 13.2064 18.3693 12.3699 18.8798 11.7269C19.3105 11.1846 19.924 10.9532 20.9288 11.2253C22.3954 11.622 23.0491 12.6355 24.14 13.453C23.6896 14.9245 23.3953 16.4014 23.1288 17.7258L22.9664 18.7133C22.1866 22.787 21.5914 25.0239 20.0445 26.3081C19.7329 26.5289 19.2874 26.8593 18.6159 26.8823C18.2639 26.8931 18.1501 26.652 18.1453 26.5469C18.1369 26.3008 18.3451 26.188 18.4835 26.0772C18.6903 25.9649 19.0029 25.7786 18.9816 25.1819C18.9591 24.4767 18.3726 23.8653 17.5249 23.8933C16.8899 23.9149 15.922 24.5101 15.9584 25.5996C15.9963 26.7249 17.0494 27.5683 18.6371 27.5149C19.4859 27.4859 21.3811 27.1418 23.249 24.9303C25.423 22.3952 26.031 19.489 26.4884 17.3619L26.9989 14.5537C27.2825 14.5876 27.5858 14.6101 27.9156 14.6179C30.6233 14.6748 31.9776 13.278 31.9978 12.2619C32.0111 11.647 31.5926 11.0419 31.0068 11.0556C30.5874 11.0675 30.0605 11.3455 29.934 11.9231C29.8105 12.4899 30.7956 13.0013 30.0256 13.4981C29.4786 13.8507 28.498 14.0992 27.117 13.8972L27.3681 12.5149C27.8806 9.89355 28.5128 6.66912 30.9108 6.59069C31.0855 6.58185 31.725 6.59853 31.7399 7.01972C31.7443 7.1604 31.7093 7.19626 31.5439 7.51834C31.3755 7.76945 31.312 7.98322 31.3199 8.22886C31.343 8.89817 31.854 9.33803 32.593 9.31151C33.5825 9.27964 33.8671 8.32012 33.8509 7.82735C33.8109 6.6695 32.5856 5.93806 30.9634 5.99097H30.9635Z" fill="#1C1A22"/>
</g>
<path d="M3.564 53.144C2.948 53.144 2.412 53.032 1.956 52.808C1.5 52.584 1.148 52.272 0.9 51.872C0.652 51.472 0.528 51.008 0.528 50.48H1.584C1.584 50.808 1.66 51.112 1.812 51.392C1.964 51.664 2.184 51.884 2.472 52.052C2.768 52.212 3.132 52.292 3.564 52.292C4.132 52.292 4.572 52.156 4.884 51.884C5.196 51.612 5.352 51.272 5.352 50.864C5.352 50.528 5.28 50.26 5.136 50.06C4.992 49.852 4.796 49.684 4.548 49.556C4.308 49.428 4.028 49.316 3.708 49.22C3.396 49.124 3.068 49.016 2.724 48.896C2.076 48.672 1.596 48.396 1.284 48.068C0.972 47.732 0.816 47.296 0.816 46.76C0.808 46.312 0.912 45.916 1.128 45.572C1.344 45.22 1.648 44.948 2.04 44.756C2.44 44.556 2.912 44.456 3.456 44.456C3.992 44.456 4.456 44.556 4.848 44.756C5.248 44.956 5.556 45.232 5.772 45.584C5.996 45.936 6.112 46.336 6.12 46.784H5.064C5.064 46.552 5.004 46.324 4.884 46.1C4.764 45.868 4.58 45.68 4.332 45.536C4.092 45.392 3.788 45.32 3.42 45.32C2.964 45.312 2.588 45.428 2.292 45.668C2.004 45.908 1.86 46.24 1.86 46.664C1.86 47.024 1.96 47.3 2.16 47.492C2.368 47.684 2.656 47.844 3.024 47.972C3.392 48.092 3.816 48.232 4.296 48.392C4.696 48.536 5.056 48.704 5.376 48.896C5.696 49.088 5.944 49.336 6.12 49.64C6.304 49.944 6.396 50.332 6.396 50.804C6.396 51.204 6.292 51.584 6.084 51.944C5.876 52.296 5.56 52.584 5.136 52.808C4.72 53.032 4.196 53.144 3.564 53.144ZM8.1735 55.64L9.6495 52.424H9.3015L6.9375 47.048H8.0295L9.9975 51.68L12.0855 47.048H13.1295L9.2295 55.64H8.1735ZM13.9535 53V47.048H14.8655L14.9375 47.912C15.1295 47.592 15.3855 47.344 15.7055 47.168C16.0255 46.992 16.3855 46.904 16.7855 46.904C17.2575 46.904 17.6615 47 17.9975 47.192C18.3415 47.384 18.6055 47.676 18.7895 48.068C18.9975 47.708 19.2815 47.424 19.6415 47.216C20.0095 47.008 20.4055 46.904 20.8295 46.904C21.5415 46.904 22.1095 47.12 22.5335 47.552C22.9575 47.976 23.1695 48.632 23.1695 49.52V53H22.1735V49.628C22.1735 49.012 22.0495 48.548 21.8015 48.236C21.5535 47.924 21.1975 47.768 20.7335 47.768C20.2535 47.768 19.8535 47.956 19.5335 48.332C19.2215 48.7 19.0655 49.228 19.0655 49.916V53H18.0575V49.628C18.0575 49.012 17.9335 48.548 17.6855 48.236C17.4375 47.924 17.0815 47.768 16.6175 47.768C16.1455 47.768 15.7495 47.956 15.4295 48.332C15.1175 48.7 14.9615 49.228 14.9615 49.916V53H13.9535ZM24.7718 53V47.9H23.8718V47.048H24.7718V46.016C24.7718 45.44 24.9158 45.02 25.2038 44.756C25.4918 44.492 25.9118 44.36 26.4638 44.36H27.0638V45.224H26.6198C26.3158 45.224 26.0998 45.288 25.9718 45.416C25.8438 45.536 25.7798 45.744 25.7798 46.04V47.048H27.2438V47.9H25.7798V53H24.7718ZM30.6816 53.144C30.1216 53.144 29.6176 53.016 29.1696 52.76C28.7216 52.504 28.3656 52.144 28.1016 51.68C27.8456 51.208 27.7176 50.656 27.7176 50.024C27.7176 49.392 27.8496 48.844 28.1136 48.38C28.3776 47.908 28.7336 47.544 29.1816 47.288C29.6376 47.032 30.1456 46.904 30.7056 46.904C31.2656 46.904 31.7696 47.032 32.2176 47.288C32.6656 47.544 33.0176 47.908 33.2736 48.38C33.5376 48.844 33.6696 49.392 33.6696 50.024C33.6696 50.656 33.5376 51.208 33.2736 51.68C33.0096 52.144 32.6496 52.504 32.1936 52.76C31.7456 53.016 31.2416 53.144 30.6816 53.144ZM30.6816 52.28C31.0256 52.28 31.3456 52.196 31.6416 52.028C31.9376 51.86 32.1776 51.608 32.3616 51.272C32.5456 50.936 32.6376 50.52 32.6376 50.024C32.6376 49.528 32.5456 49.112 32.3616 48.776C32.1856 48.44 31.9496 48.188 31.6536 48.02C31.3576 47.852 31.0416 47.768 30.7056 47.768C30.3616 47.768 30.0416 47.852 29.7456 48.02C29.4496 48.188 29.2096 48.44 29.0256 48.776C28.8416 49.112 28.7496 49.528 28.7496 50.024C28.7496 50.52 28.8416 50.936 29.0256 51.272C29.2096 51.608 29.4456 51.86 29.7336 52.028C30.0296 52.196 30.3456 52.28 30.6816 52.28ZM34.8311 53V47.048H35.7431L35.8031 48.116C35.9951 47.74 36.2711 47.444 36.6311 47.228C36.9911 47.012 37.3991 46.904 37.8551 46.904C38.5591 46.904 39.1191 47.12 39.5351 47.552C39.9591 47.976 40.1711 48.632 40.1711 49.52V53H39.1631V49.628C39.1631 48.388 38.6511 47.768 37.6271 47.768C37.1151 47.768 36.6871 47.956 36.3431 48.332C36.0071 48.7 35.8391 49.228 35.8391 49.916V53H34.8311ZM41.9305 55.64L43.4065 52.424H43.0585L40.6945 47.048H41.7865L43.7545 51.68L45.8425 47.048H46.8865L42.9865 55.64H41.9305Z" fill="#CDCAD5"/>
<defs>
<clipPath id="clip0_4096_1663">
<rect width="32" height="32" fill="white" transform="translate(8)"/>
</clipPath>
</defs>
</svg>
